STARTFONT 2.1
FONT -FontForge-AnonymousProLHQwattash-Book-R-Normal--17-120-100-100-P-89-ISO10646-1
SIZE 12 100 100
FONTBOUNDINGBOX 12 19 -2 -4
COMMENT "Generated by fontforge, http://fontforge.sourceforge.net"
COMMENT "Copyright (c) Mark Simonson 2009-2010. All rights reserved."
STARTPROPERTIES 40
FOUNDRY "FontForge"
FAMILY_NAME "AnonymousProLHQwattash"
WEIGHT_NAME "Book"
SLANT "R"
SETWIDTH_NAME "Normal"
ADD_STYLE_NAME ""
PIXEL_SIZE 17
POINT_SIZE 120
RESOLUTION_X 100
RESOLUTION_Y 100
SPACING "P"
AVERAGE_WIDTH 89
CHARSET_REGISTRY "ISO10646"
CHARSET_ENCODING "1"
FONTNAME_REGISTRY ""
CHARSET_COLLECTIONS "ASCII ISOLatin1Encoding ISO8859-2 ISO8859-5 ISO8859-7 ISO8859-9 ISO8859-4 ISO10646-1"
FONT_NAME "AnonymousProLHQwattash"
FACE_NAME "Anonymous Pro qwattash patch with adjusted line height"
COPYRIGHT "Copyright (c) Mark Simonson 2009-2010. All rights reserved."
FONT_VERSION "1.002"
FONT_ASCENT 13
FONT_DESCENT 4
UNDERLINE_POSITION -2
UNDERLINE_THICKNESS 1
X_HEIGHT 6
CAP_HEIGHT 9
DEFAULT_CHAR 1
RAW_ASCENT 779
RAW_DESCENT 220
NORM_SPACE 9
RELATIVE_WEIGHT 40
RELATIVE_SETWIDTH 50
SUPERSCRIPT_X 0
SUPERSCRIPT_Y 7
SUPERSCRIPT_SIZE 10
SUBSCRIPT_X 0
SUBSCRIPT_Y 2
SUBSCRIPT_SIZE 10
AVG_LOWERCASE_WIDTH 89
AVG_UPPERCASE_WIDTH 89
ENDPROPERTIES
CHARS 630
STARTCHAR .null.dup1
ENCODING 0
SWIDTH 520 0
DWIDTH 9 0
BBX 1 1 0 0
BITMAP
00
ENDCHAR
STARTCHAR nonmarkingreturn
ENCODING 13
SWIDTH 520 0
DWIDTH 9 0
BBX 1 1 0 0
BITMAP
00
ENDCHAR
STARTCHAR space
ENCODING 32
SWIDTH 520 0
DWIDTH 9 0
BBX 1 1 0 0
BITMAP
00
ENDCHAR
STARTCHAR exclam
ENCODING 33
SWIDTH 520 0
DWIDTH 9 0
BBX 1 10 3 0
BITMAP
80
80
80
80
80
80
80
00
00
80
ENDCHAR
STARTCHAR quotedbl
ENCODING 34
SWIDTH 520 0
DWIDTH 9 0
BBX 5 3 1 7
BITMAP
D8
48
48
ENDCHAR
STARTCHAR numbersign
ENCODING 35
SWIDTH 520 0
DWIDTH 9 0
BBX 8 7 0 0
BITMAP
24
FF
24
24
FF
24
24
ENDCHAR
STARTCHAR dollar
ENCODING 36
SWIDTH 520 0
DWIDTH 9 0
BBX 7 13 0 -1
BITMAP
10
38
D4
92
90
70
18
16
12
92
54
38
10
ENDCHAR
STARTCHAR percent
ENCODING 37
SWIDTH 520 0
DWIDTH 9 0
BBX 8 11 0 0
BITMAP
62
92
94
98
68
10
10
26
49
49
86
ENDCHAR
STARTCHAR ampersand
ENCODING 38
SWIDTH 520 0
DWIDTH 9 0
BBX 7 10 0 0
BITMAP
70
88
88
88
70
E2
92
8C
8C
72
ENDCHAR
STARTCHAR quotesingle
ENCODING 39
SWIDTH 520 0
DWIDTH 9 0
BBX 1 3 3 7
BITMAP
80
80
80
ENDCHAR
STARTCHAR parenleft
ENCODING 40
SWIDTH 520 0
DWIDTH 9 0
BBX 4 15 1 -3
BITMAP
10
20
40
40
80
80
80
80
80
80
80
40
40
20
10
ENDCHAR
STARTCHAR parenright
ENCODING 41
SWIDTH 520 0
DWIDTH 9 0
BBX 4 15 2 -3
BITMAP
80
40
20
20
10
10
10
10
10
10
10
20
20
40
80
ENDCHAR
STARTCHAR asterisk
ENCODING 42
SWIDTH 520 0
DWIDTH 9 0
BBX 7 7 0 0
BITMAP
10
92
74
18
7C
92
10
ENDCHAR
STARTCHAR plus
ENCODING 43
SWIDTH 520 0
DWIDTH 9 0
BBX 7 7 0 0
BITMAP
10
10
10
FE
10
10
10
ENDCHAR
STARTCHAR comma
ENCODING 44
SWIDTH 520 0
DWIDTH 9 0
BBX 3 4 2 -3
BITMAP
60
40
80
80
ENDCHAR
STARTCHAR hyphen
ENCODING 45
SWIDTH 520 0
DWIDTH 9 0
BBX 7 1 0 3
BITMAP
FE
ENDCHAR
STARTCHAR period
ENCODING 46
SWIDTH 520 0
DWIDTH 9 0
BBX 1 1 3 0
BITMAP
80
ENDCHAR
STARTCHAR slash
ENCODING 47
SWIDTH 520 0
DWIDTH 9 0
BBX 7 13 0 -2
BITMAP
02
02
04
04
08
08
10
10
20
20
40
40
80
ENDCHAR
STARTCHAR zero
ENCODING 48
SWIDTH 520 0
DWIDTH 9 0
BBX 8 10 0 0
BITMAP
3C
42
83
85
89
91
A1
C1
42
3C
ENDCHAR
STARTCHAR one
ENCODING 49
SWIDTH 520 0
DWIDTH 9 0
BBX 6 10 0 0
BITMAP
10
30
30
D0
10
10
10
10
10
7C
ENDCHAR
STARTCHAR two
ENCODING 50
SWIDTH 520 0
DWIDTH 9 0
BBX 7 10 0 0
BITMAP
3C
42
82
82
04
08
10
22
42
FE
ENDCHAR
STARTCHAR three
ENCODING 51
SWIDTH 520 0
DWIDTH 9 0
BBX 7 10 0 0
BITMAP
3C
C2
82
02
1C
06
02
82
C6
3C
ENDCHAR
STARTCHAR four
ENCODING 52
SWIDTH 520 0
DWIDTH 9 0
BBX 8 10 0 0
BITMAP
0C
0C
14
24
24
44
FF
04
04
1F
ENDCHAR
STARTCHAR five
ENCODING 53
SWIDTH 520 0
DWIDTH 9 0
BBX 8 10 0 0
BITMAP
FC
80
80
BC
C2
01
01
41
63
1E
ENDCHAR
STARTCHAR six
ENCODING 54
SWIDTH 520 0
DWIDTH 9 0
BBX 8 10 0 0
BITMAP
3C
46
80
BC
C2
81
81
81
42
3C
ENDCHAR
STARTCHAR seven
ENCODING 55
SWIDTH 520 0
DWIDTH 9 0
BBX 7 10 0 0
BITMAP
FE
84
84
08
08
10
10
10
10
10
ENDCHAR
STARTCHAR eight
ENCODING 56
SWIDTH 520 0
DWIDTH 9 0
BBX 8 10 0 0
BITMAP
7C
82
82
C2
3C
43
81
81
C3
3E
ENDCHAR
STARTCHAR nine
ENCODING 57
SWIDTH 520 0
DWIDTH 8 0
BBX 7 10 0 0
BITMAP
38
44
82
82
82
46
3A
04
84
78
ENDCHAR
STARTCHAR colon
ENCODING 58
SWIDTH 520 0
DWIDTH 9 0
BBX 1 7 3 0
BITMAP
80
00
00
00
00
00
80
ENDCHAR
STARTCHAR semicolon
ENCODING 59
SWIDTH 520 0
DWIDTH 9 0
BBX 3 10 2 -3
BITMAP
40
00
00
00
00
00
60
40
80
80
ENDCHAR
STARTCHAR less
ENCODING 60
SWIDTH 520 0
DWIDTH 9 0
BBX 4 8 2 0
BITMAP
10
20
40
80
80
40
20
10
ENDCHAR
STARTCHAR equal
ENCODING 61
SWIDTH 520 0
DWIDTH 9 0
BBX 7 4 0 2
BITMAP
FE
00
00
FE
ENDCHAR
STARTCHAR greater
ENCODING 62
SWIDTH 520 0
DWIDTH 9 0
BBX 5 8 1 0
BITMAP
80
40
20
10
18
20
40
80
ENDCHAR
STARTCHAR question
ENCODING 63
SWIDTH 520 0
DWIDTH 9 0
BBX 6 10 1 0
BITMAP
38
44
44
84
08
10
20
20
00
20
ENDCHAR
STARTCHAR at
ENCODING 64
SWIDTH 520 0
DWIDTH 9 0
BBX 8 10 0 0
BITMAP
3C
42
BD
C5
C5
C5
CD
B6
44
3C
ENDCHAR
STARTCHAR A
ENCODING 65
SWIDTH 520 0
DWIDTH 9 0
BBX 8 10 0 0
BITMAP
18
28
28
24
44
44
7E
82
82
81
ENDCHAR
STARTCHAR B
ENCODING 66
SWIDTH 520 0
DWIDTH 9 0
BBX 7 10 0 0
BITMAP
FC
82
82
82
FC
86
82
82
86
FC
ENDCHAR
STARTCHAR C
ENCODING 67
SWIDTH 520 0
DWIDTH 9 0
BBX 8 10 0 0
BITMAP
3D
43
81
81
80
80
80
81
42
3C
ENDCHAR
STARTCHAR D
ENCODING 68
SWIDTH 520 0
DWIDTH 9 0
BBX 8 10 0 0
BITMAP
FC
82
81
81
81
81
81
81
82
FC
ENDCHAR
STARTCHAR E
ENCODING 69
SWIDTH 520 0
DWIDTH 9 0
BBX 7 10 0 0
BITMAP
FE
80
80
80
F8
80
80
80
80
FE
ENDCHAR
STARTCHAR F
ENCODING 70
SWIDTH 520 0
DWIDTH 9 0
BBX 7 10 0 0
BITMAP
FE
80
80
80
F8
80
80
80
80
80
ENDCHAR
STARTCHAR G
ENCODING 71
SWIDTH 520 0
DWIDTH 8 0
BBX 7 10 0 0
BITMAP
3A
46
82
82
80
8E
82
82
44
38
ENDCHAR
STARTCHAR H
ENCODING 72
SWIDTH 520 0
DWIDTH 9 0
BBX 7 10 0 0
BITMAP
82
82
82
82
FE
82
82
82
82
82
ENDCHAR
STARTCHAR I
ENCODING 73
SWIDTH 520 0
DWIDTH 9 0
BBX 5 10 1 0
BITMAP
F8
20
20
20
20
20
20
20
20
F8
ENDCHAR
STARTCHAR J
ENCODING 74
SWIDTH 520 0
DWIDTH 9 0
BBX 7 10 0 0
BITMAP
02
02
02
02
02
02
02
82
46
3C
ENDCHAR
STARTCHAR K
ENCODING 75
SWIDTH 520 0
DWIDTH 9 0
BBX 7 10 0 0
BITMAP
86
88
98
B0
E0
F0
90
88
84
86
ENDCHAR
STARTCHAR L
ENCODING 76
SWIDTH 520 0
DWIDTH 9 0
BBX 7 10 0 0
BITMAP
80
80
80
80
80
80
80
80
80
FE
ENDCHAR
STARTCHAR M
ENCODING 77
SWIDTH 520 0
DWIDTH 9 0
BBX 7 10 0 0
BITMAP
C6
C6
C6
AA
AA
BA
92
82
82
82
ENDCHAR
STARTCHAR N
ENCODING 78
SWIDTH 520 0
DWIDTH 9 0
BBX 7 10 0 0
BITMAP
C2
C2
A2
B2
92
9A
8A
8E
86
86
ENDCHAR
STARTCHAR O
ENCODING 79
SWIDTH 520 0
DWIDTH 9 0
BBX 8 10 0 0
BITMAP
3C
42
81
81
81
81
81
81
42
3C
ENDCHAR
STARTCHAR P
ENCODING 80
SWIDTH 520 0
DWIDTH 9 0
BBX 8 10 0 0
BITMAP
FE
83
81
81
83
FC
80
80
80
80
ENDCHAR
STARTCHAR Q
ENCODING 81
SWIDTH 520 0
DWIDTH 9 0
BBX 8 13 0 -3
BITMAP
3C
42
81
81
81
81
81
81
42
3C
08
08
07
ENDCHAR
STARTCHAR R
ENCODING 82
SWIDTH 520 0
DWIDTH 9 0
BBX 8 10 0 0
BITMAP
FC
83
81
81
83
FE
98
8C
86
83
ENDCHAR
STARTCHAR S
ENCODING 83
SWIDTH 520 0
DWIDTH 9 0
BBX 7 10 0 0
BITMAP
7A
86
82
C0
38
04
02
82
C6
BC
ENDCHAR
STARTCHAR T
ENCODING 84
SWIDTH 520 0
DWIDTH 8 0
BBX 7 10 0 0
BITMAP
FE
92
92
92
10
10
10
10
10
7C
ENDCHAR
STARTCHAR U
ENCODING 85
SWIDTH 520 0
DWIDTH 9 0
BBX 7 10 0 0
BITMAP
82
82
82
82
82
82
82
82
C6
7C
ENDCHAR
STARTCHAR V
ENCODING 86
SWIDTH 520 0
DWIDTH 9 0
BBX 8 10 0 0
BITMAP
81
82
C2
42
44
64
24
28
38
18
ENDCHAR
STARTCHAR W
ENCODING 87
SWIDTH 520 0
DWIDTH 9 0
BBX 9 10 -1 0
BITMAP
C080
4180
4100
4900
4D00
2D00
3500
3600
3600
3200
ENDCHAR
STARTCHAR X
ENCODING 88
SWIDTH 520 0
DWIDTH 9 0
BBX 8 10 0 0
BITMAP
EE
44
2C
28
18
18
28
24
44
E7
ENDCHAR
STARTCHAR Y
ENCODING 89
SWIDTH 520 0
DWIDTH 9 0
BBX 7 10 0 0
BITMAP
EE
44
44
28
28
10
10
10
10
7C
ENDCHAR
STARTCHAR Z
ENCODING 90
SWIDTH 520 0
DWIDTH 9 0
BBX 7 10 0 0
BITMAP
FE
84
8C
88
10
30
22
42
C2
FE
ENDCHAR
STARTCHAR bracketleft
ENCODING 91
SWIDTH 520 0
DWIDTH 9 0
BBX 3 15 3 -3
BITMAP
E0
80
80
80
80
80
80
80
80
80
80
80
80
80
E0
ENDCHAR
STARTCHAR backslash
ENCODING 92
SWIDTH 520 0
DWIDTH 9 0
BBX 7 13 1 -2
BITMAP
80
40
40
20
20
20
10
10
08
08
04
04
02
ENDCHAR
STARTCHAR bracketright
ENCODING 93
SWIDTH 520 0
DWIDTH 9 0
BBX 3 15 1 -3
BITMAP
E0
20
20
20
20
20
20
20
20
20
20
20
20
20
E0
ENDCHAR
STARTCHAR asciicircum
ENCODING 94
SWIDTH 520 0
DWIDTH 9 0
BBX 7 6 0 4
BITMAP
18
28
2C
44
46
82
ENDCHAR
STARTCHAR underscore
ENCODING 95
SWIDTH 520 0
DWIDTH 9 0
BBX 7 1 0 -2
BITMAP
FE
ENDCHAR
STARTCHAR grave
ENCODING 96
SWIDTH 520 0
DWIDTH 9 0
BBX 4 3 2 8
BITMAP
80
40
30
ENDCHAR
STARTCHAR a
ENCODING 97
SWIDTH 520 0
DWIDTH 9 0
BBX 7 7 0 0
BITMAP
7C
82
02
7E
82
86
7A
ENDCHAR
STARTCHAR b
ENCODING 98
SWIDTH 520 0
DWIDTH 9 0
BBX 8 10 0 0
BITMAP
80
80
80
BC
C2
81
81
81
82
FC
ENDCHAR
STARTCHAR c
ENCODING 99
SWIDTH 520 0
DWIDTH 9 0
BBX 7 7 0 0
BITMAP
3A
46
82
80
80
42
3C
ENDCHAR
STARTCHAR d
ENCODING 100
SWIDTH 520 0
DWIDTH 9 0
BBX 7 10 0 0
BITMAP
06
02
02
3E
42
82
82
82
42
3E
ENDCHAR
STARTCHAR e
ENCODING 101
SWIDTH 520 0
DWIDTH 9 0
BBX 7 7 0 0
BITMAP
3C
42
82
FE
80
42
3C
ENDCHAR
STARTCHAR f
ENCODING 102
SWIDTH 520 0
DWIDTH 9 0
BBX 6 10 1 0
BITMAP
1C
20
20
FC
20
20
20
20
20
F8
ENDCHAR
STARTCHAR g
ENCODING 103
SWIDTH 520 0
DWIDTH 9 0
BBX 7 10 0 -3
BITMAP
3E
42
82
82
82
42
3E
02
C6
7C
ENDCHAR
STARTCHAR h
ENCODING 104
SWIDTH 520 0
DWIDTH 9 0
BBX 7 10 0 0
BITMAP
80
80
80
BC
C2
82
82
82
82
82
ENDCHAR
STARTCHAR i
ENCODING 105
SWIDTH 520 0
DWIDTH 9 0
BBX 5 10 1 0
BITMAP
20
00
00
E0
20
20
20
20
20
F8
ENDCHAR
STARTCHAR j
ENCODING 106
SWIDTH 520 0
DWIDTH 9 0
BBX 6 13 0 -3
BITMAP
04
00
00
1C
04
04
04
04
04
04
04
C4
78
ENDCHAR
STARTCHAR k
ENCODING 107
SWIDTH 520 0
DWIDTH 9 0
BBX 7 10 0 0
BITMAP
80
80
80
86
88
B0
E0
90
88
86
ENDCHAR
STARTCHAR l
ENCODING 108
SWIDTH 520 0
DWIDTH 9 0
BBX 5 10 1 0
BITMAP
E0
20
20
20
20
20
20
20
20
F8
ENDCHAR
STARTCHAR m
ENCODING 109
SWIDTH 520 0
DWIDTH 8 0
BBX 7 7 0 0
BITMAP
FE
92
92
92
92
92
92
ENDCHAR
STARTCHAR n
ENCODING 110
SWIDTH 520 0
DWIDTH 9 0
BBX 7 7 0 0
BITMAP
BC
C2
82
82
82
82
82
ENDCHAR
STARTCHAR o
ENCODING 111
SWIDTH 520 0
DWIDTH 9 0
BBX 8 7 0 0
BITMAP
3C
42
81
81
81
42
3C
ENDCHAR
STARTCHAR p
ENCODING 112
SWIDTH 520 0
DWIDTH 9 0
BBX 8 10 0 -3
BITMAP
BC
C2
81
81
81
82
FC
80
80
80
ENDCHAR
STARTCHAR q
ENCODING 113
SWIDTH 520 0
DWIDTH 9 0
BBX 7 10 0 -3
BITMAP
3E
42
82
82
82
42
3E
02
02
02
ENDCHAR
STARTCHAR r
ENCODING 114
SWIDTH 520 0
DWIDTH 9 0
BBX 8 7 0 0
BITMAP
EF
30
20
20
20
20
F8
ENDCHAR
STARTCHAR s
ENCODING 115
SWIDTH 520 0
DWIDTH 9 0
BBX 7 7 0 0
BITMAP
7C
84
80
7C
02
82
7C
ENDCHAR
STARTCHAR t
ENCODING 116
SWIDTH 520 0
DWIDTH 9 0
BBX 8 10 0 0
BITMAP
20
20
20
FC
20
20
20
21
22
1E
ENDCHAR
STARTCHAR u
ENCODING 117
SWIDTH 520 0
DWIDTH 9 0
BBX 7 7 0 0
BITMAP
82
82
82
82
82
86
7A
ENDCHAR
STARTCHAR v
ENCODING 118
SWIDTH 520 0
DWIDTH 9 0
BBX 8 7 0 0
BITMAP
83
C2
44
64
2C
28
18
ENDCHAR
STARTCHAR w
ENCODING 119
SWIDTH 520 0
DWIDTH 9 0
BBX 8 7 0 0
BITMAP
93
9A
9A
6A
6A
64
64
ENDCHAR
STARTCHAR x
ENCODING 120
SWIDTH 520 0
DWIDTH 9 0
BBX 8 7 0 0
BITMAP
EE
64
28
10
28
64
EF
ENDCHAR
STARTCHAR y
ENCODING 121
SWIDTH 520 0
DWIDTH 9 0
BBX 8 10 0 -3
BITMAP
83
C2
44
44
2C
28
18
10
30
E0
ENDCHAR
STARTCHAR z
ENCODING 122
SWIDTH 520 0
DWIDTH 9 0
BBX 7 7 0 0
BITMAP
FE
84
88
10
22
42
FE
ENDCHAR
STARTCHAR braceleft
ENCODING 123
SWIDTH 520 0
DWIDTH 9 0
BBX 4 15 2 -3
BITMAP
30
40
40
40
40
40
40
80
40
40
40
40
40
40
30
ENDCHAR
STARTCHAR bar
ENCODING 124
SWIDTH 520 0
DWIDTH 9 0
BBX 1 13 3 -1
BITMAP
80
80
80
80
80
80
80
80
80
80
80
80
80
ENDCHAR
STARTCHAR braceright
ENCODING 125
SWIDTH 520 0
DWIDTH 9 0
BBX 4 15 1 -3
BITMAP
C0
20
20
20
20
20
20
10
20
20
20
20
20
20
C0
ENDCHAR
STARTCHAR asciitilde
ENCODING 126
SWIDTH 520 0
DWIDTH 9 0
BBX 7 3 0 2
BITMAP
72
92
8C
ENDCHAR
STARTCHAR uni00A0
ENCODING 160
SWIDTH 520 0
DWIDTH 9 0
BBX 1 1 0 0
BITMAP
00
ENDCHAR
STARTCHAR exclamdown
ENCODING 161
SWIDTH 520 0
DWIDTH 9 0
BBX 1 10 5 0
BITMAP
80
00
00
80
80
80
80
80
80
80
ENDCHAR
STARTCHAR cent
ENCODING 162
SWIDTH 520 0
DWIDTH 9 0
BBX 7 10 0 0
BITMAP
10
3C
56
90
90
90
90
56
38
10
ENDCHAR
STARTCHAR sterling
ENCODING 163
SWIDTH 520 0
DWIDTH 9 0
BBX 7 10 1 0
BITMAP
38
44
40
40
E0
40
40
44
46
F8
ENDCHAR
STARTCHAR currency
ENCODING 164
SWIDTH 520 0
DWIDTH 9 0
BBX 8 8 0 1
BITMAP
BD
42
81
81
81
81
42
BD
ENDCHAR
STARTCHAR yen
ENCODING 165
SWIDTH 520 0
DWIDTH 9 0
BBX 7 10 0 0
BITMAP
82
44
44
EE
28
10
FE
10
10
10
ENDCHAR
STARTCHAR brokenbar
ENCODING 166
SWIDTH 520 0
DWIDTH 9 0
BBX 1 13 3 -1
BITMAP
80
80
80
80
80
80
00
80
80
80
80
80
80
ENDCHAR
STARTCHAR section
ENCODING 167
SWIDTH 520 0
DWIDTH 9 0
BBX 7 15 0 -2
BITMAP
3C
46
42
40
20
5C
42
42
32
1E
06
02
82
42
3C
ENDCHAR
STARTCHAR dieresis
ENCODING 168
SWIDTH 520 0
DWIDTH 9 0
BBX 5 1 1 9
BITMAP
C8
ENDCHAR
STARTCHAR copyright
ENCODING 169
SWIDTH 520 0
DWIDTH 8 0
BBX 9 9 0 1
BITMAP
3E00
5D00
A680
A080
A080
A480
9E80
6300
3E00
ENDCHAR
STARTCHAR ordfeminine
ENCODING 170
SWIDTH 520 0
DWIDTH 9 0
BBX 6 8 0 2
BITMAP
78
84
7C
84
8C
74
00
FC
ENDCHAR
STARTCHAR guillemotleft
ENCODING 171
SWIDTH 520 0
DWIDTH 9 0
BBX 6 5 0 1
BITMAP
24
48
90
48
24
ENDCHAR
STARTCHAR logicalnot
ENCODING 172
SWIDTH 520 0
DWIDTH 9 0
BBX 7 5 0 -1
BITMAP
FE
02
02
02
02
ENDCHAR
STARTCHAR uni00AD
ENCODING 173
SWIDTH 520 0
DWIDTH 9 0
BBX 7 1 0 3
BITMAP
FE
ENDCHAR
STARTCHAR registered
ENCODING 174
SWIDTH 520 0
DWIDTH 9 0
BBX 9 9 0 3
BITMAP
3E00
6300
9E80
9280
9280
9C80
9480
6300
3E00
ENDCHAR
STARTCHAR macron
ENCODING 175
SWIDTH 520 0
DWIDTH 9 0
BBX 5 1 1 9
BITMAP
F8
ENDCHAR
STARTCHAR degree
ENCODING 176
SWIDTH 520 0
DWIDTH 9 0
BBX 6 6 0 6
BITMAP
78
CC
84
84
CC
78
ENDCHAR
STARTCHAR plusminus
ENCODING 177
SWIDTH 520 0
DWIDTH 9 0
BBX 7 9 0 -2
BITMAP
10
10
10
FE
10
10
10
00
FE
ENDCHAR
STARTCHAR twosuperior
ENCODING 178
SWIDTH 520 0
DWIDTH 9 0
BBX 3 4 1 6
BITMAP
E0
A0
60
E0
ENDCHAR
STARTCHAR threesuperior
ENCODING 179
SWIDTH 520 0
DWIDTH 9 0
BBX 4 4 -1 6
BITMAP
70
70
90
70
ENDCHAR
STARTCHAR acute
ENCODING 180
SWIDTH 520 0
DWIDTH 9 0
BBX 4 3 2 8
BITMAP
20
70
80
ENDCHAR
STARTCHAR mu
ENCODING 181
SWIDTH 520 0
DWIDTH 9 0
BBX 7 10 0 -3
BITMAP
82
82
82
82
82
86
FA
80
80
80
ENDCHAR
STARTCHAR paragraph
ENCODING 182
SWIDTH 520 0
DWIDTH 9 0
BBX 7 10 0 0
BITMAP
7E
D2
92
92
92
7E
12
12
12
12
ENDCHAR
STARTCHAR periodcentered
ENCODING 183
SWIDTH 520 0
DWIDTH 9 0
BBX 1 2 3 3
BITMAP
80
80
ENDCHAR
STARTCHAR cedilla
ENCODING 184
SWIDTH 520 0
DWIDTH 9 0
BBX 3 3 1 -3
BITMAP
20
20
C0
ENDCHAR
STARTCHAR onesuperior
ENCODING 185
SWIDTH 520 0
DWIDTH 9 0
BBX 4 4 -1 6
BITMAP
20
E0
20
70
ENDCHAR
STARTCHAR ordmasculine
ENCODING 186
SWIDTH 520 0
DWIDTH 9 0
BBX 6 8 0 2
BITMAP
78
84
84
84
84
78
00
FC
ENDCHAR
STARTCHAR guillemotright
ENCODING 187
SWIDTH 520 0
DWIDTH 9 0
BBX 6 5 1 1
BITMAP
90
48
24
48
90
ENDCHAR
STARTCHAR onequarter
ENCODING 188
SWIDTH 520 0
DWIDTH 9 0
BBX 8 11 0 0
BITMAP
01
22
E4
24
78
08
12
26
26
4F
87
ENDCHAR
STARTCHAR onehalf
ENCODING 189
SWIDTH 520 0
DWIDTH 9 0
BBX 8 11 0 0
BITMAP
01
22
E2
24
78
08
17
19
22
45
47
ENDCHAR
STARTCHAR threequarters
ENCODING 190
SWIDTH 520 0
DWIDTH 9 0
BBX 8 11 0 0
BITMAP
01
72
A4
94
78
08
12
26
26
4F
87
ENDCHAR
STARTCHAR questiondown
ENCODING 191
SWIDTH 520 0
DWIDTH 9 0
BBX 6 10 2 0
BITMAP
10
00
00
10
20
40
80
8C
88
70
ENDCHAR
STARTCHAR Agrave
ENCODING 192
SWIDTH 520 0
DWIDTH 9 0
BBX 8 14 0 0
BITMAP
20
10
0C
00
18
28
28
24
44
44
7E
82
82
81
ENDCHAR
STARTCHAR Aacute
ENCODING 193
SWIDTH 520 0
DWIDTH 9 0
BBX 8 14 0 0
BITMAP
08
1C
20
00
18
28
28
24
44
44
7E
82
82
81
ENDCHAR
STARTCHAR Acircumflex
ENCODING 194
SWIDTH 520 0
DWIDTH 9 0
BBX 8 14 0 0
BITMAP
10
38
44
00
18
28
28
24
44
44
7E
82
82
81
ENDCHAR
STARTCHAR Atilde
ENCODING 195
SWIDTH 520 0
DWIDTH 9 0
BBX 8 13 0 0
BITMAP
72
4C
00
18
28
28
24
44
44
7E
82
82
81
ENDCHAR
STARTCHAR Adieresis
ENCODING 196
SWIDTH 520 0
DWIDTH 9 0
BBX 8 13 0 0
BITMAP
64
00
00
18
28
28
24
44
44
7E
82
82
81
ENDCHAR
STARTCHAR Aring
ENCODING 197
SWIDTH 520 0
DWIDTH 9 0
BBX 8 13 0 0
BITMAP
18
24
24
18
14
14
24
26
22
7E
43
41
81
ENDCHAR
STARTCHAR AE
ENCODING 198
SWIDTH 520 0
DWIDTH 9 0
BBX 8 10 -1 0
BITMAP
1F
18
28
28
2E
28
78
48
48
8F
ENDCHAR
STARTCHAR Ccedilla
ENCODING 199
SWIDTH 520 0
DWIDTH 8 0
BBX 7 13 0 -3
BITMAP
3A
46
82
82
80
80
80
82
44
38
10
70
60
ENDCHAR
STARTCHAR Egrave
ENCODING 200
SWIDTH 520 0
DWIDTH 9 0
BBX 7 14 0 0
BITMAP
20
10
0C
00
FE
80
80
80
F8
80
80
80
80
FE
ENDCHAR
STARTCHAR Eacute
ENCODING 201
SWIDTH 520 0
DWIDTH 9 0
BBX 7 14 0 0
BITMAP
08
1C
20
00
FE
80
80
80
F8
80
80
80
80
FE
ENDCHAR
STARTCHAR Ecircumflex
ENCODING 202
SWIDTH 520 0
DWIDTH 9 0
BBX 7 14 0 0
BITMAP
10
38
44
00
FE
80
80
80
F8
80
80
80
80
FE
ENDCHAR
STARTCHAR Edieresis
ENCODING 203
SWIDTH 520 0
DWIDTH 9 0
BBX 7 13 0 0
BITMAP
64
00
00
FE
80
80
80
F8
80
80
80
80
FE
ENDCHAR
STARTCHAR Igrave
ENCODING 204
SWIDTH 520 0
DWIDTH 9 0
BBX 5 14 1 0
BITMAP
40
20
18
00
F8
20
20
20
20
20
20
20
20
F8
ENDCHAR
STARTCHAR Iacute
ENCODING 205
SWIDTH 520 0
DWIDTH 9 0
BBX 5 14 1 0
BITMAP
10
38
40
00
F8
20
20
20
20
20
20
20
20
F8
ENDCHAR
STARTCHAR Icircumflex
ENCODING 206
SWIDTH 520 0
DWIDTH 9 0
BBX 5 14 1 0
BITMAP
20
70
88
00
F8
20
20
20
20
20
20
20
20
F8
ENDCHAR
STARTCHAR Idieresis
ENCODING 207
SWIDTH 520 0
DWIDTH 9 0
BBX 5 13 1 0
BITMAP
C8
00
00
F8
20
20
20
20
20
20
20
20
F8
ENDCHAR
STARTCHAR Eth
ENCODING 208
SWIDTH 520 0
DWIDTH 9 0
BBX 9 10 -1 0
BITMAP
7E00
4100
4080
4080
F080
4080
4080
4080
4100
7E00
ENDCHAR
STARTCHAR Ntilde
ENCODING 209
SWIDTH 520 0
DWIDTH 9 0
BBX 7 13 0 0
BITMAP
72
4C
00
C2
C2
A2
B2
92
9A
8A
8E
86
86
ENDCHAR
STARTCHAR Ograve
ENCODING 210
SWIDTH 520 0
DWIDTH 9 0
BBX 8 14 0 0
BITMAP
20
10
0C
00
3C
42
81
81
81
81
81
81
42
3C
ENDCHAR
STARTCHAR Oacute
ENCODING 211
SWIDTH 520 0
DWIDTH 9 0
BBX 8 14 0 0
BITMAP
08
1C
20
00
3C
42
81
81
81
81
81
81
42
3C
ENDCHAR
STARTCHAR Ocircumflex
ENCODING 212
SWIDTH 520 0
DWIDTH 9 0
BBX 8 14 0 0
BITMAP
10
38
44
00
3C
42
81
81
81
81
81
81
42
3C
ENDCHAR
STARTCHAR Otilde
ENCODING 213
SWIDTH 520 0
DWIDTH 9 0
BBX 8 13 0 0
BITMAP
72
4C
00
3C
42
81
81
81
81
81
81
42
3C
ENDCHAR
STARTCHAR Odieresis
ENCODING 214
SWIDTH 520 0
DWIDTH 9 0
BBX 8 13 0 0
BITMAP
64
00
00
3C
42
81
81
81
81
81
81
42
3C
ENDCHAR
STARTCHAR multiply
ENCODING 215
SWIDTH 520 0
DWIDTH 9 0
BBX 6 6 1 1
BITMAP
88
4C
30
30
48
8C
ENDCHAR
STARTCHAR Oslash
ENCODING 216
SWIDTH 520 0
DWIDTH 9 0
BBX 8 10 0 0
BITMAP
3D
43
C3
85
89
91
A1
C3
C2
BC
ENDCHAR
STARTCHAR Ugrave
ENCODING 217
SWIDTH 520 0
DWIDTH 9 0
BBX 7 14 0 0
BITMAP
20
10
0C
00
82
82
82
82
82
82
82
82
C6
7C
ENDCHAR
STARTCHAR Uacute
ENCODING 218
SWIDTH 520 0
DWIDTH 9 0
BBX 7 14 0 0
BITMAP
08
1C
20
00
82
82
82
82
82
82
82
82
C6
7C
ENDCHAR
STARTCHAR Ucircumflex
ENCODING 219
SWIDTH 520 0
DWIDTH 9 0
BBX 7 14 0 0
BITMAP
10
38
44
00
82
82
82
82
82
82
82
82
C6
7C
ENDCHAR
STARTCHAR Udieresis
ENCODING 220
SWIDTH 520 0
DWIDTH 9 0
BBX 7 13 0 0
BITMAP
64
00
00
82
82
82
82
82
82
82
82
C6
7C
ENDCHAR
STARTCHAR Yacute
ENCODING 221
SWIDTH 520 0
DWIDTH 9 0
BBX 7 14 0 0
BITMAP
08
1C
20
00
EE
44
44
28
28
10
10
10
10
7C
ENDCHAR
STARTCHAR Thorn
ENCODING 222
SWIDTH 520 0
DWIDTH 9 0
BBX 8 10 0 0
BITMAP
80
80
FC
83
81
81
83
FC
80
80
ENDCHAR
STARTCHAR germandbls
ENCODING 223
SWIDTH 520 0
DWIDTH 9 0
BBX 7 10 0 0
BITMAP
78
C4
84
88
90
98
84
82
A2
9C
ENDCHAR
STARTCHAR agrave
ENCODING 224
SWIDTH 520 0
DWIDTH 9 0
BBX 7 11 0 0
BITMAP
20
10
0C
00
7C
82
02
7E
82
86
7A
ENDCHAR
STARTCHAR aacute
ENCODING 225
SWIDTH 520 0
DWIDTH 9 0
BBX 7 11 0 0
BITMAP
08
1C
20
00
7C
82
02
7E
82
86
7A
ENDCHAR
STARTCHAR acircumflex
ENCODING 226
SWIDTH 520 0
DWIDTH 9 0
BBX 7 11 0 0
BITMAP
10
38
44
00
7C
82
02
7E
82
86
7A
ENDCHAR
STARTCHAR atilde
ENCODING 227
SWIDTH 520 0
DWIDTH 9 0
BBX 7 10 0 0
BITMAP
72
4C
00
7C
82
02
7E
82
86
7A
ENDCHAR
STARTCHAR adieresis
ENCODING 228
SWIDTH 520 0
DWIDTH 9 0
BBX 7 10 0 0
BITMAP
64
00
00
7C
82
02
7E
82
86
7A
ENDCHAR
STARTCHAR aring
ENCODING 229
SWIDTH 520 0
DWIDTH 9 0
BBX 7 12 0 0
BITMAP
18
24
24
18
00
7C
82
02
7E
82
86
7A
ENDCHAR
STARTCHAR ae
ENCODING 230
SWIDTH 520 0
DWIDTH 9 0
BBX 7 7 0 0
BITMAP
6E
92
12
7E
90
92
EE
ENDCHAR
STARTCHAR ccedilla
ENCODING 231
SWIDTH 520 0
DWIDTH 9 0
BBX 7 10 0 -3
BITMAP
3A
46
82
80
80
46
7C
10
70
60
ENDCHAR
STARTCHAR egrave
ENCODING 232
SWIDTH 520 0
DWIDTH 9 0
BBX 7 11 0 0
BITMAP
20
10
0C
00
3C
42
82
FE
80
42
3C
ENDCHAR
STARTCHAR eacute
ENCODING 233
SWIDTH 520 0
DWIDTH 9 0
BBX 7 11 0 0
BITMAP
08
1C
20
00
3C
42
82
FE
80
42
3C
ENDCHAR
STARTCHAR ecircumflex
ENCODING 234
SWIDTH 520 0
DWIDTH 9 0
BBX 7 11 0 0
BITMAP
10
38
44
00
3C
42
82
FE
80
42
3C
ENDCHAR
STARTCHAR edieresis
ENCODING 235
SWIDTH 520 0
DWIDTH 9 0
BBX 7 10 0 0
BITMAP
64
00
00
3C
42
82
FE
80
42
3C
ENDCHAR
STARTCHAR igrave
ENCODING 236
SWIDTH 520 0
DWIDTH 9 0
BBX 5 11 1 0
BITMAP
40
20
18
00
E0
20
20
20
20
20
F8
ENDCHAR
STARTCHAR iacute
ENCODING 237
SWIDTH 520 0
DWIDTH 9 0
BBX 5 11 1 0
BITMAP
10
38
40
00
E0
20
20
20
20
20
F8
ENDCHAR
STARTCHAR icircumflex
ENCODING 238
SWIDTH 520 0
DWIDTH 9 0
BBX 5 11 1 0
BITMAP
20
70
88
00
E0
20
20
20
20
20
F8
ENDCHAR
STARTCHAR idieresis
ENCODING 239
SWIDTH 520 0
DWIDTH 9 0
BBX 5 10 1 0
BITMAP
C8
00
00
E0
20
20
20
20
20
F8
ENDCHAR
STARTCHAR eth
ENCODING 240
SWIDTH 520 0
DWIDTH 9 0
BBX 8 11 0 0
BITMAP
24
18
14
22
0F
31
41
81
81
82
7C
ENDCHAR
STARTCHAR ntilde
ENCODING 241
SWIDTH 520 0
DWIDTH 9 0
BBX 7 10 0 0
BITMAP
72
4C
00
BC
C2
82
82
82
82
82
ENDCHAR
STARTCHAR ograve
ENCODING 242
SWIDTH 520 0
DWIDTH 9 0
BBX 8 11 0 0
BITMAP
20
10
0C
00
3C
42
81
81
81
42
3C
ENDCHAR
STARTCHAR oacute
ENCODING 243
SWIDTH 520 0
DWIDTH 9 0
BBX 8 11 0 0
BITMAP
08
1C
20
00
3C
42
81
81
81
42
3C
ENDCHAR
STARTCHAR ocircumflex
ENCODING 244
SWIDTH 520 0
DWIDTH 9 0
BBX 8 11 0 0
BITMAP
10
38
44
00
3C
42
81
81
81
42
3C
ENDCHAR
STARTCHAR otilde
ENCODING 245
SWIDTH 520 0
DWIDTH 9 0
BBX 8 10 0 0
BITMAP
72
4C
00
3C
42
81
81
81
42
3C
ENDCHAR
STARTCHAR odieresis
ENCODING 246
SWIDTH 520 0
DWIDTH 9 0
BBX 8 10 0 0
BITMAP
64
00
00
3C
42
81
81
81
42
3C
ENDCHAR
STARTCHAR divide
ENCODING 247
SWIDTH 520 0
DWIDTH 9 0
BBX 7 7 0 0
BITMAP
10
00
00
FE
00
00
10
ENDCHAR
STARTCHAR oslash
ENCODING 248
SWIDTH 520 0
DWIDTH 9 0
BBX 8 7 0 0
BITMAP
3D
47
85
99
A1
E2
BC
ENDCHAR
STARTCHAR ugrave
ENCODING 249
SWIDTH 520 0
DWIDTH 9 0
BBX 7 11 0 0
BITMAP
20
10
0C
00
82
82
82
82
82
86
7A
ENDCHAR
STARTCHAR uacute
ENCODING 250
SWIDTH 520 0
DWIDTH 9 0
BBX 7 11 0 0
BITMAP
08
1C
20
00
82
82
82
82
82
86
7A
ENDCHAR
STARTCHAR ucircumflex
ENCODING 251
SWIDTH 520 0
DWIDTH 9 0
BBX 7 11 0 0
BITMAP
10
38
44
00
82
82
82
82
82
86
7A
ENDCHAR
STARTCHAR udieresis
ENCODING 252
SWIDTH 520 0
DWIDTH 9 0
BBX 7 10 0 0
BITMAP
64
00
00
82
82
82
82
82
86
7A
ENDCHAR
STARTCHAR yacute
ENCODING 253
SWIDTH 520 0
DWIDTH 9 0
BBX 8 14 0 -3
BITMAP
08
1C
20
00
83
C2
44
44
2C
28
18
10
30
E0
ENDCHAR
STARTCHAR thorn
ENCODING 254
SWIDTH 520 0
DWIDTH 9 0
BBX 8 13 0 -3
BITMAP
80
80
80
BC
C2
81
81
81
82
FC
80
80
80
ENDCHAR
STARTCHAR ydieresis
ENCODING 255
SWIDTH 520 0
DWIDTH 9 0
BBX 8 13 0 -3
BITMAP
64
00
00
83
C2
44
44
2C
28
18
10
30
E0
ENDCHAR
STARTCHAR Amacron
ENCODING 256
SWIDTH 520 0
DWIDTH 9 0
BBX 8 13 0 0
BITMAP
7C
00
00
18
28
28
24
44
44
7E
82
82
81
ENDCHAR
STARTCHAR amacron
ENCODING 257
SWIDTH 520 0
DWIDTH 9 0
BBX 7 10 0 0
BITMAP
7C
00
00
7C
82
02
7E
82
86
7A
ENDCHAR
STARTCHAR Abreve
ENCODING 258
SWIDTH 520 0
DWIDTH 9 0
BBX 8 13 0 0
BITMAP
7C
00
00
18
28
28
24
44
44
7E
82
82
81
ENDCHAR
STARTCHAR abreve
ENCODING 259
SWIDTH 520 0
DWIDTH 9 0
BBX 7 10 0 0
BITMAP
7C
00
00
7C
82
02
7E
82
86
7A
ENDCHAR
STARTCHAR Aogonek
ENCODING 260
SWIDTH 520 0
DWIDTH 9 0
BBX 10 13 0 -3
BITMAP
1800
2800
2C00
2400
4400
4600
7E00
4300
4100
8100
0100
0100
00C0
ENDCHAR
STARTCHAR aogonek
ENCODING 261
SWIDTH 520 0
DWIDTH 9 0
BBX 9 10 0 -3
BITMAP
7C00
8200
0200
7E00
8200
8600
7A00
0200
0200
0180
ENDCHAR
STARTCHAR Cacute
ENCODING 262
SWIDTH 520 0
DWIDTH 9 0
BBX 8 14 0 0
BITMAP
08
1C
20
00
3D
43
81
81
80
80
80
81
42
3C
ENDCHAR
STARTCHAR cacute
ENCODING 263
SWIDTH 520 0
DWIDTH 9 0
BBX 7 11 0 0
BITMAP
08
1C
20
00
3A
46
82
80
80
42
3C
ENDCHAR
STARTCHAR Ccircumflex
ENCODING 264
SWIDTH 520 0
DWIDTH 9 0
BBX 8 14 0 0
BITMAP
10
38
44
00
3D
43
81
81
80
80
80
81
42
3C
ENDCHAR
STARTCHAR ccircumflex
ENCODING 265
SWIDTH 520 0
DWIDTH 9 0
BBX 7 11 0 0
BITMAP
10
38
44
00
3A
46
82
80
80
42
3C
ENDCHAR
STARTCHAR Cdotaccent
ENCODING 266
SWIDTH 520 0
DWIDTH 9 0
BBX 8 13 0 0
BITMAP
10
00
00
3D
43
81
81
80
80
80
81
42
3C
ENDCHAR
STARTCHAR cdotaccent
ENCODING 267
SWIDTH 520 0
DWIDTH 9 0
BBX 7 10 0 0
BITMAP
10
00
00
3A
46
82
80
80
42
3C
ENDCHAR
STARTCHAR Ccaron
ENCODING 268
SWIDTH 520 0
DWIDTH 9 0
BBX 8 14 0 0
BITMAP
44
38
10
00
3D
43
81
81
80
80
80
81
42
3C
ENDCHAR
STARTCHAR ccaron
ENCODING 269
SWIDTH 520 0
DWIDTH 9 0
BBX 7 11 0 0
BITMAP
44
38
10
00
3A
46
82
80
80
42
3C
ENDCHAR
STARTCHAR Dcaron
ENCODING 270
SWIDTH 520 0
DWIDTH 9 0
BBX 8 14 0 0
BITMAP
44
38
10
00
FC
82
81
81
81
81
81
81
82
FC
ENDCHAR
STARTCHAR dcaron
ENCODING 271
SWIDTH 520 0
DWIDTH 9 0
BBX 8 10 0 0
BITMAP
0D
05
05
7E
84
84
84
84
C4
7C
ENDCHAR
STARTCHAR Dcroat
ENCODING 272
SWIDTH 520 0
DWIDTH 9 0
BBX 9 10 -1 0
BITMAP
7E00
4100
4080
4080
F080
4080
4080
4080
4100
7E00
ENDCHAR
STARTCHAR dcroat
ENCODING 273
SWIDTH 520 0
DWIDTH 9 0
BBX 8 10 0 0
BITMAP
02
07
02
3E
42
82
82
82
42
3E
ENDCHAR
STARTCHAR Emacron
ENCODING 274
SWIDTH 520 0
DWIDTH 9 0
BBX 7 13 0 0
BITMAP
7C
00
00
FE
80
80
80
F8
80
80
80
80
FE
ENDCHAR
STARTCHAR emacron
ENCODING 275
SWIDTH 520 0
DWIDTH 9 0
BBX 7 10 0 0
BITMAP
7C
00
00
3C
42
82
FE
80
42
3C
ENDCHAR
STARTCHAR Ebreve
ENCODING 276
SWIDTH 520 0
DWIDTH 9 0
BBX 7 13 0 0
BITMAP
7C
00
00
FE
80
80
80
F8
80
80
80
80
FE
ENDCHAR
STARTCHAR ebreve
ENCODING 277
SWIDTH 520 0
DWIDTH 9 0
BBX 7 10 0 0
BITMAP
7C
00
00
3C
42
82
FE
80
42
3C
ENDCHAR
STARTCHAR Edotaccent
ENCODING 278
SWIDTH 520 0
DWIDTH 9 0
BBX 7 13 0 0
BITMAP
10
00
00
FE
80
80
80
F8
80
80
80
80
FE
ENDCHAR
STARTCHAR edotaccent
ENCODING 279
SWIDTH 520 0
DWIDTH 9 0
BBX 7 10 0 0
BITMAP
10
00
00
3C
42
82
FE
80
42
3C
ENDCHAR
STARTCHAR Eogonek
ENCODING 280
SWIDTH 520 0
DWIDTH 9 0
BBX 9 13 0 -3
BITMAP
FE00
8000
8000
8000
F800
8000
8000
8000
8000
FE00
0200
0200
0180
ENDCHAR
STARTCHAR eogonek
ENCODING 281
SWIDTH 520 0
DWIDTH 9 0
BBX 8 10 0 -3
BITMAP
3C
42
82
FF
80
42
3C
08
08
06
ENDCHAR
STARTCHAR Ecaron
ENCODING 282
SWIDTH 520 0
DWIDTH 9 0
BBX 7 14 0 0
BITMAP
44
38
10
00
FE
80
80
80
F8
80
80
80
80
FE
ENDCHAR
STARTCHAR ecaron
ENCODING 283
SWIDTH 520 0
DWIDTH 9 0
BBX 7 11 0 0
BITMAP
44
38
10
00
3C
42
82
FE
80
42
3C
ENDCHAR
STARTCHAR Gcircumflex
ENCODING 284
SWIDTH 520 0
DWIDTH 8 0
BBX 7 14 0 0
BITMAP
10
38
44
00
3A
46
82
82
80
8E
82
82
44
38
ENDCHAR
STARTCHAR gcircumflex
ENCODING 285
SWIDTH 520 0
DWIDTH 9 0
BBX 7 14 0 -3
BITMAP
10
38
44
00
3E
42
82
82
82
42
3E
02
C6
7C
ENDCHAR
STARTCHAR Gbreve
ENCODING 286
SWIDTH 520 0
DWIDTH 8 0
BBX 7 13 0 0
BITMAP
7C
00
00
3A
46
82
82
80
8E
82
82
44
38
ENDCHAR
STARTCHAR gbreve
ENCODING 287
SWIDTH 520 0
DWIDTH 9 0
BBX 7 13 0 -3
BITMAP
7C
00
00
3E
42
82
82
82
42
3E
02
C6
7C
ENDCHAR
STARTCHAR Gdotaccent
ENCODING 288
SWIDTH 520 0
DWIDTH 8 0
BBX 7 13 0 0
BITMAP
10
00
00
3A
46
82
82
80
8E
82
82
44
38
ENDCHAR
STARTCHAR gdotaccent
ENCODING 289
SWIDTH 520 0
DWIDTH 9 0
BBX 7 13 0 -3
BITMAP
10
00
00
3E
42
82
82
82
42
3E
02
C6
7C
ENDCHAR
STARTCHAR Gcommaaccent
ENCODING 290
SWIDTH 520 0
DWIDTH 8 0
BBX 7 13 0 -3
BITMAP
3A
46
82
82
80
8E
82
82
44
38
00
18
30
ENDCHAR
STARTCHAR gcommaaccent
ENCODING 291
SWIDTH 520 0
DWIDTH 9 0
BBX 7 15 0 -3
BITMAP
08
10
10
20
00
3E
42
82
82
82
42
3E
02
C6
7C
ENDCHAR
STARTCHAR Hcircumflex
ENCODING 292
SWIDTH 520 0
DWIDTH 9 0
BBX 7 14 0 0
BITMAP
10
38
44
00
82
82
82
82
FE
82
82
82
82
82
ENDCHAR
STARTCHAR hcircumflex
ENCODING 293
SWIDTH 520 0
DWIDTH 9 0
BBX 7 14 0 0
BITMAP
10
38
44
00
80
80
80
BC
C2
82
82
82
82
82
ENDCHAR
STARTCHAR Hbar
ENCODING 294
SWIDTH 520 0
DWIDTH 9 0
BBX 9 10 -1 0
BITMAP
4100
FF80
4100
4100
7F00
4100
4100
4100
4100
4100
ENDCHAR
STARTCHAR hbar
ENCODING 295
SWIDTH 520 0
DWIDTH 9 0
BBX 8 10 -1 0
BITMAP
40
E0
40
5E
61
41
41
41
41
41
ENDCHAR
STARTCHAR Itilde
ENCODING 296
SWIDTH 520 0
DWIDTH 9 0
BBX 6 13 1 0
BITMAP
E4
98
00
F8
20
20
20
20
20
20
20
20
F8
ENDCHAR
STARTCHAR itilde
ENCODING 297
SWIDTH 520 0
DWIDTH 9 0
BBX 6 10 1 0
BITMAP
E4
98
00
E0
20
20
20
20
20
F8
ENDCHAR
STARTCHAR Imacron
ENCODING 298
SWIDTH 520 0
DWIDTH 9 0
BBX 5 13 1 0
BITMAP
F8
00
00
F8
20
20
20
20
20
20
20
20
F8
ENDCHAR
STARTCHAR imacron
ENCODING 299
SWIDTH 520 0
DWIDTH 9 0
BBX 5 10 1 0
BITMAP
F8
00
00
E0
20
20
20
20
20
F8
ENDCHAR
STARTCHAR Ibreve
ENCODING 300
SWIDTH 520 0
DWIDTH 9 0
BBX 5 13 1 0
BITMAP
F8
00
00
F8
20
20
20
20
20
20
20
20
F8
ENDCHAR
STARTCHAR ibreve
ENCODING 301
SWIDTH 520 0
DWIDTH 9 0
BBX 5 10 1 0
BITMAP
F8
00
00
E0
20
20
20
20
20
F8
ENDCHAR
STARTCHAR Iogonek
ENCODING 302
SWIDTH 520 0
DWIDTH 9 0
BBX 6 13 1 -3
BITMAP
F8
20
20
20
20
20
20
20
20
F8
08
08
04
ENDCHAR
STARTCHAR iogonek
ENCODING 303
SWIDTH 520 0
DWIDTH 9 0
BBX 6 13 1 -3
BITMAP
20
00
00
E0
20
20
20
20
20
F8
08
08
04
ENDCHAR
STARTCHAR Idotaccent
ENCODING 304
SWIDTH 520 0
DWIDTH 9 0
BBX 5 13 1 0
BITMAP
20
00
00
F8
20
20
20
20
20
20
20
20
F8
ENDCHAR
STARTCHAR dotlessi
ENCODING 305
SWIDTH 520 0
DWIDTH 9 0
BBX 5 7 1 0
BITMAP
E0
20
20
20
20
20
F8
ENDCHAR
STARTCHAR IJ
ENCODING 306
SWIDTH 520 0
DWIDTH 9 0
BBX 8 13 0 -3
BITMAP
F9
21
21
21
21
21
21
21
21
F9
01
22
1E
ENDCHAR
STARTCHAR ij
ENCODING 307
SWIDTH 520 0
DWIDTH 9 0
BBX 7 13 0 -3
BITMAP
62
00
00
EE
22
22
22
22
22
FA
02
62
3C
ENDCHAR
STARTCHAR Jcircumflex
ENCODING 308
SWIDTH 520 0
DWIDTH 9 0
BBX 7 14 0 0
BITMAP
10
38
44
00
02
02
02
02
02
02
02
82
46
3C
ENDCHAR
STARTCHAR jcircumflex
ENCODING 309
SWIDTH 520 0
DWIDTH 9 0
BBX 7 14 0 -3
BITMAP
08
14
22
00
1C
04
04
04
04
04
04
04
C4
78
ENDCHAR
STARTCHAR Kcommaaccent
ENCODING 310
SWIDTH 520 0
DWIDTH 9 0
BBX 7 13 0 -3
BITMAP
86
88
98
B0
E0
F0
90
88
84
84
02
18
30
ENDCHAR
STARTCHAR kcommaaccent
ENCODING 311
SWIDTH 520 0
DWIDTH 9 0
BBX 7 13 0 -3
BITMAP
80
80
80
86
88
B0
E0
90
88
84
02
18
30
ENDCHAR
STARTCHAR kgreenlandic
ENCODING 312
SWIDTH 520 0
DWIDTH 9 0
BBX 7 7 0 0
BITMAP
86
88
B0
E0
90
88
86
ENDCHAR
STARTCHAR Lacute
ENCODING 313
SWIDTH 520 0
DWIDTH 9 0
BBX 7 14 0 0
BITMAP
08
1C
20
00
80
80
80
80
80
80
80
80
80
FE
ENDCHAR
STARTCHAR lacute
ENCODING 314
SWIDTH 520 0
DWIDTH 9 0
BBX 5 14 1 0
BITMAP
10
38
40
00
E0
20
20
20
20
20
20
20
20
F8
ENDCHAR
STARTCHAR Lcommaaccent
ENCODING 315
SWIDTH 520 0
DWIDTH 9 0
BBX 7 13 0 -3
BITMAP
80
80
80
80
80
80
80
80
80
FE
00
18
30
ENDCHAR
STARTCHAR lcommaaccent
ENCODING 316
SWIDTH 520 0
DWIDTH 9 0
BBX 5 13 1 -3
BITMAP
E0
20
20
20
20
20
20
20
20
F8
00
30
60
ENDCHAR
STARTCHAR Lcaron
ENCODING 317
SWIDTH 520 0
DWIDTH 9 0
BBX 7 11 0 0
BITMAP
04
84
84
84
80
80
80
80
80
80
FE
ENDCHAR
STARTCHAR lcaron
ENCODING 318
SWIDTH 520 0
DWIDTH 9 0
BBX 6 11 1 0
BITMAP
04
E4
24
24
20
20
20
20
20
20
F8
ENDCHAR
STARTCHAR Ldot
ENCODING 319
SWIDTH 520 0
DWIDTH 9 0
BBX 7 10 0 0
BITMAP
80
80
80
80
8C
8C
80
80
80
FE
ENDCHAR
STARTCHAR ldot
ENCODING 320
SWIDTH 520 0
DWIDTH 9 0
BBX 8 10 1 0
BITMAP
E0
20
20
20
20
23
23
20
20
F8
ENDCHAR
STARTCHAR Lslash
ENCODING 321
SWIDTH 520 0
DWIDTH 9 0
BBX 9 10 -2 0
BITMAP
2000
2000
2000
2000
3800
E000
2000
2000
2000
3F80
ENDCHAR
STARTCHAR lslash
ENCODING 322
SWIDTH 520 0
DWIDTH 9 0
BBX 5 10 1 0
BITMAP
E0
20
20
20
38
E0
20
20
20
F8
ENDCHAR
STARTCHAR Nacute
ENCODING 323
SWIDTH 520 0
DWIDTH 9 0
BBX 7 14 0 0
BITMAP
08
1C
20
00
C2
C2
A2
B2
92
9A
8A
8E
86
86
ENDCHAR
STARTCHAR nacute
ENCODING 324
SWIDTH 520 0
DWIDTH 9 0
BBX 7 11 0 0
BITMAP
08
1C
20
00
BC
C2
82
82
82
82
82
ENDCHAR
STARTCHAR Ncommaaccent
ENCODING 325
SWIDTH 520 0
DWIDTH 9 0
BBX 7 13 0 -3
BITMAP
C2
C2
A2
B2
92
9A
8A
8E
86
86
00
18
30
ENDCHAR
STARTCHAR ncommaaccent
ENCODING 326
SWIDTH 520 0
DWIDTH 9 0
BBX 7 10 0 -3
BITMAP
BC
C2
82
82
82
82
82
00
18
30
ENDCHAR
STARTCHAR Ncaron
ENCODING 327
SWIDTH 520 0
DWIDTH 9 0
BBX 7 14 0 0
BITMAP
44
38
10
00
C2
C2
A2
B2
92
9A
8A
8E
86
86
ENDCHAR
STARTCHAR ncaron
ENCODING 328
SWIDTH 520 0
DWIDTH 9 0
BBX 7 11 0 0
BITMAP
44
38
10
00
BC
C2
82
82
82
82
82
ENDCHAR
STARTCHAR napostrophe
ENCODING 329
SWIDTH 520 0
DWIDTH 9 0
BBX 7 13 0 0
BITMAP
80
80
80
80
00
00
BC
C2
82
82
82
82
82
ENDCHAR
STARTCHAR Eng
ENCODING 330
SWIDTH 520 0
DWIDTH 9 0
BBX 7 13 0 -3
BITMAP
C2
C2
A2
B2
92
9A
8A
8E
86
82
02
46
3C
ENDCHAR
STARTCHAR eng
ENCODING 331
SWIDTH 520 0
DWIDTH 9 0
BBX 7 10 0 -3
BITMAP
BC
C2
82
82
82
82
82
02
02
1C
ENDCHAR
STARTCHAR Omacron
ENCODING 332
SWIDTH 520 0
DWIDTH 9 0
BBX 8 13 0 0
BITMAP
7C
00
00
3C
42
81
81
81
81
81
81
42
3C
ENDCHAR
STARTCHAR omacron
ENCODING 333
SWIDTH 520 0
DWIDTH 9 0
BBX 8 10 0 0
BITMAP
7C
00
00
3C
42
81
81
81
42
3C
ENDCHAR
STARTCHAR Obreve
ENCODING 334
SWIDTH 520 0
DWIDTH 9 0
BBX 8 13 0 0
BITMAP
7C
00
00
3C
42
81
81
81
81
81
81
42
3C
ENDCHAR
STARTCHAR obreve
ENCODING 335
SWIDTH 520 0
DWIDTH 9 0
BBX 8 10 0 0
BITMAP
7C
00
00
3C
42
81
81
81
42
3C
ENDCHAR
STARTCHAR Ohungarumlaut
ENCODING 336
SWIDTH 520 0
DWIDTH 9 0
BBX 8 14 0 0
BITMAP
36
24
2C
40
3C
42
81
81
81
81
81
81
42
3C
ENDCHAR
STARTCHAR ohungarumlaut
ENCODING 337
SWIDTH 520 0
DWIDTH 9 0
BBX 8 11 0 0
BITMAP
36
24
2C
40
3C
42
81
81
81
42
3C
ENDCHAR
STARTCHAR OE
ENCODING 338
SWIDTH 520 0
DWIDTH 9 0
BBX 7 10 0 0
BITMAP
7E
90
90
90
9C
90
90
90
90
7E
ENDCHAR
STARTCHAR oe
ENCODING 339
SWIDTH 520 0
DWIDTH 9 0
BBX 7 7 0 0
BITMAP
6C
92
92
9E
90
92
6E
ENDCHAR
STARTCHAR Racute
ENCODING 340
SWIDTH 520 0
DWIDTH 9 0
BBX 8 14 0 0
BITMAP
08
1C
20
00
FC
83
81
81
83
FE
98
8C
86
83
ENDCHAR
STARTCHAR racute
ENCODING 341
SWIDTH 520 0
DWIDTH 9 0
BBX 8 11 0 0
BITMAP
08
1C
20
00
EF
30
20
20
20
20
F8
ENDCHAR
STARTCHAR Rcommaaccent
ENCODING 342
SWIDTH 520 0
DWIDTH 9 0
BBX 8 13 0 -3
BITMAP
FC
83
81
81
83
FE
98
8C
86
83
00
18
30
ENDCHAR
STARTCHAR rcommaaccent
ENCODING 343
SWIDTH 520 0
DWIDTH 9 0
BBX 8 10 0 -3
BITMAP
EF
30
20
20
20
20
F8
00
18
30
ENDCHAR
STARTCHAR Rcaron
ENCODING 344
SWIDTH 520 0
DWIDTH 9 0
BBX 8 14 0 0
BITMAP
44
38
10
00
FC
83
81
81
83
FE
98
8C
86
83
ENDCHAR
STARTCHAR rcaron
ENCODING 345
SWIDTH 520 0
DWIDTH 9 0
BBX 8 11 0 0
BITMAP
44
38
10
00
EF
30
20
20
20
20
F8
ENDCHAR
STARTCHAR Sacute
ENCODING 346
SWIDTH 520 0
DWIDTH 9 0
BBX 7 14 0 0
BITMAP
08
1C
20
00
7A
86
82
C0
38
04
02
82
C6
BC
ENDCHAR
STARTCHAR sacute
ENCODING 347
SWIDTH 520 0
DWIDTH 9 0
BBX 7 11 0 0
BITMAP
08
1C
20
00
7C
84
80
7C
02
82
7C
ENDCHAR
STARTCHAR Scircumflex
ENCODING 348
SWIDTH 520 0
DWIDTH 9 0
BBX 7 14 0 0
BITMAP
10
38
44
00
7A
86
82
C0
38
04
02
82
C6
BC
ENDCHAR
STARTCHAR scircumflex
ENCODING 349
SWIDTH 520 0
DWIDTH 9 0
BBX 7 11 0 0
BITMAP
10
38
44
00
7C
84
80
7C
02
82
7C
ENDCHAR
STARTCHAR Scedilla
ENCODING 350
SWIDTH 520 0
DWIDTH 9 0
BBX 7 13 0 -3
BITMAP
7A
86
82
80
70
0C
02
82
C2
FC
10
10
60
ENDCHAR
STARTCHAR scedilla
ENCODING 351
SWIDTH 520 0
DWIDTH 9 0
BBX 8 10 -1 -3
BITMAP
3E
42
40
3C
03
81
7E
08
08
30
ENDCHAR
STARTCHAR Scaron
ENCODING 352
SWIDTH 520 0
DWIDTH 9 0
BBX 7 14 0 0
BITMAP
44
38
10
00
7A
86
82
C0
38
04
02
82
C6
BC
ENDCHAR
STARTCHAR scaron
ENCODING 353
SWIDTH 520 0
DWIDTH 9 0
BBX 7 11 0 0
BITMAP
44
38
10
00
7C
84
80
7C
02
82
7C
ENDCHAR
STARTCHAR Tcommaaccent
ENCODING 354
SWIDTH 520 0
DWIDTH 8 0
BBX 7 13 0 -3
BITMAP
FE
92
92
92
10
10
10
10
10
7C
00
18
30
ENDCHAR
STARTCHAR tcommaaccent
ENCODING 355
SWIDTH 520 0
DWIDTH 9 0
BBX 8 13 0 -3
BITMAP
20
20
20
FC
20
20
20
21
22
1E
00
18
30
ENDCHAR
STARTCHAR Tcaron
ENCODING 356
SWIDTH 520 0
DWIDTH 8 0
BBX 7 14 0 0
BITMAP
44
38
10
00
FE
92
92
92
10
10
10
10
10
7C
ENDCHAR
STARTCHAR tcaron
ENCODING 357
SWIDTH 520 0
DWIDTH 9 0
BBX 8 12 0 0
BITMAP
02
02
22
22
20
FC
20
20
20
21
22
1E
ENDCHAR
STARTCHAR Tbar
ENCODING 358
SWIDTH 520 0
DWIDTH 8 0
BBX 7 10 0 0
BITMAP
FE
92
92
92
7C
10
10
10
10
7C
ENDCHAR
STARTCHAR tbar
ENCODING 359
SWIDTH 520 0
DWIDTH 9 0
BBX 8 10 0 0
BITMAP
20
20
20
FC
20
20
F8
21
22
1E
ENDCHAR
STARTCHAR Utilde
ENCODING 360
SWIDTH 520 0
DWIDTH 9 0
BBX 7 13 0 0
BITMAP
72
4C
00
82
82
82
82
82
82
82
82
C6
7C
ENDCHAR
STARTCHAR utilde
ENCODING 361
SWIDTH 520 0
DWIDTH 9 0
BBX 7 10 0 0
BITMAP
72
4C
00
82
82
82
82
82
86
7A
ENDCHAR
STARTCHAR Umacron
ENCODING 362
SWIDTH 520 0
DWIDTH 9 0
BBX 7 13 0 0
BITMAP
7C
00
00
82
82
82
82
82
82
82
82
C6
7C
ENDCHAR
STARTCHAR umacron
ENCODING 363
SWIDTH 520 0
DWIDTH 9 0
BBX 7 10 0 0
BITMAP
7C
00
00
82
82
82
82
82
86
7A
ENDCHAR
STARTCHAR Ubreve
ENCODING 364
SWIDTH 520 0
DWIDTH 9 0
BBX 7 13 0 0
BITMAP
7C
00
00
82
82
82
82
82
82
82
82
C6
7C
ENDCHAR
STARTCHAR ubreve
ENCODING 365
SWIDTH 520 0
DWIDTH 9 0
BBX 7 10 0 0
BITMAP
7C
00
00
82
82
82
82
82
86
7A
ENDCHAR
STARTCHAR Uring
ENCODING 366
SWIDTH 520 0
DWIDTH 9 0
BBX 7 15 0 0
BITMAP
18
24
24
18
00
82
82
82
82
82
82
82
82
C6
7C
ENDCHAR
STARTCHAR uring
ENCODING 367
SWIDTH 520 0
DWIDTH 9 0
BBX 7 12 0 0
BITMAP
18
24
24
18
00
82
82
82
82
82
86
7A
ENDCHAR
STARTCHAR Uhungarumlaut
ENCODING 368
SWIDTH 520 0
DWIDTH 9 0
BBX 7 14 0 0
BITMAP
36
24
2C
40
82
82
82
82
82
82
82
82
C6
7C
ENDCHAR
STARTCHAR uhungarumlaut
ENCODING 369
SWIDTH 520 0
DWIDTH 9 0
BBX 7 11 0 0
BITMAP
36
24
2C
40
82
82
82
82
82
86
7A
ENDCHAR
STARTCHAR Uogonek
ENCODING 370
SWIDTH 520 0
DWIDTH 9 0
BBX 7 13 0 -3
BITMAP
82
82
82
82
82
82
82
82
46
3C
08
08
06
ENDCHAR
STARTCHAR uogonek
ENCODING 371
SWIDTH 520 0
DWIDTH 9 0
BBX 9 10 0 -3
BITMAP
8200
8200
8200
8200
8200
8600
7A00
0200
0200
0180
ENDCHAR
STARTCHAR Wcircumflex
ENCODING 372
SWIDTH 520 0
DWIDTH 9 0
BBX 9 14 -1 0
BITMAP
0800
1C00
2200
0000
C080
4180
4100
4900
4D00
2D00
3500
3600
3600
3200
ENDCHAR
STARTCHAR wcircumflex
ENCODING 373
SWIDTH 520 0
DWIDTH 9 0
BBX 8 11 0 0
BITMAP
10
38
44
00
93
9A
9A
6A
6A
64
64
ENDCHAR
STARTCHAR Ycircumflex
ENCODING 374
SWIDTH 520 0
DWIDTH 9 0
BBX 7 14 0 0
BITMAP
10
38
44
00
EE
44
44
28
28
10
10
10
10
7C
ENDCHAR
STARTCHAR ycircumflex
ENCODING 375
SWIDTH 520 0
DWIDTH 9 0
BBX 8 14 0 -3
BITMAP
10
38
44
00
83
C2
44
44
2C
28
18
10
30
E0
ENDCHAR
STARTCHAR Ydieresis
ENCODING 376
SWIDTH 520 0
DWIDTH 9 0
BBX 7 13 0 0
BITMAP
64
00
00
EE
44
44
28
28
10
10
10
10
7C
ENDCHAR
STARTCHAR Zacute
ENCODING 377
SWIDTH 520 0
DWIDTH 9 0
BBX 7 14 0 0
BITMAP
08
1C
20
00
FE
84
8C
88
10
30
22
42
C2
FE
ENDCHAR
STARTCHAR zacute
ENCODING 378
SWIDTH 520 0
DWIDTH 9 0
BBX 7 11 0 0
BITMAP
08
1C
20
00
FE
84
88
10
22
42
FE
ENDCHAR
STARTCHAR Zdotaccent
ENCODING 379
SWIDTH 520 0
DWIDTH 9 0
BBX 7 13 0 0
BITMAP
10
00
00
FE
84
8C
88
10
30
22
42
C2
FE
ENDCHAR
STARTCHAR zdotaccent
ENCODING 380
SWIDTH 520 0
DWIDTH 9 0
BBX 7 10 0 0
BITMAP
10
00
00
FE
84
88
10
22
42
FE
ENDCHAR
STARTCHAR Zcaron
ENCODING 381
SWIDTH 520 0
DWIDTH 9 0
BBX 7 14 0 0
BITMAP
44
38
10
00
FE
84
8C
88
10
30
22
42
C2
FE
ENDCHAR
STARTCHAR zcaron
ENCODING 382
SWIDTH 520 0
DWIDTH 9 0
BBX 7 11 0 0
BITMAP
44
38
10
00
FE
84
88
10
22
42
FE
ENDCHAR
STARTCHAR longs
ENCODING 383
SWIDTH 520 0
DWIDTH 9 0
BBX 6 10 1 0
BITMAP
1C
20
20
E0
20
20
20
20
20
F8
ENDCHAR
STARTCHAR florin
ENCODING 402
SWIDTH 520 0
DWIDTH 9 0
BBX 7 13 0 -3
BITMAP
0E
10
10
7E
10
10
10
10
10
10
10
10
E0
ENDCHAR
STARTCHAR AEacute
ENCODING 508
SWIDTH 520 0
DWIDTH 9 0
BBX 8 14 -1 0
BITMAP
04
0E
10
00
1F
18
28
28
2E
28
78
48
48
8F
ENDCHAR
STARTCHAR aeacute
ENCODING 509
SWIDTH 520 0
DWIDTH 9 0
BBX 7 11 0 0
BITMAP
08
1C
20
00
6E
92
12
7E
90
92
EE
ENDCHAR
STARTCHAR Oslashacute
ENCODING 510
SWIDTH 520 0
DWIDTH 9 0
BBX 8 14 0 0
BITMAP
08
1C
20
00
3D
43
C3
85
89
91
A1
C3
C2
BC
ENDCHAR
STARTCHAR oslashacute
ENCODING 511
SWIDTH 520 0
DWIDTH 9 0
BBX 8 11 0 0
BITMAP
08
1C
20
00
3D
47
85
99
A1
E2
BC
ENDCHAR
STARTCHAR Scommaaccent
ENCODING 536
SWIDTH 520 0
DWIDTH 9 0
BBX 7 13 0 -3
BITMAP
7A
86
82
C0
38
04
02
82
C6
BC
00
18
30
ENDCHAR
STARTCHAR scommaaccent
ENCODING 537
SWIDTH 520 0
DWIDTH 9 0
BBX 7 10 0 -3
BITMAP
7C
84
80
7C
02
82
7C
00
18
30
ENDCHAR
STARTCHAR uni021A
ENCODING 538
SWIDTH 520 0
DWIDTH 8 0
BBX 7 13 0 -3
BITMAP
FE
92
92
92
10
10
10
10
10
7C
00
18
30
ENDCHAR
STARTCHAR uni021B
ENCODING 539
SWIDTH 520 0
DWIDTH 9 0
BBX 8 13 0 -3
BITMAP
20
20
20
FC
20
20
20
21
22
1E
00
18
30
ENDCHAR
STARTCHAR circumflex
ENCODING 710
SWIDTH 520 0
DWIDTH 9 0
BBX 5 3 1 8
BITMAP
20
70
88
ENDCHAR
STARTCHAR caron
ENCODING 711
SWIDTH 520 0
DWIDTH 9 0
BBX 5 3 1 8
BITMAP
88
70
20
ENDCHAR
STARTCHAR breve
ENCODING 728
SWIDTH 520 0
DWIDTH 9 0
BBX 5 1 1 9
BITMAP
F8
ENDCHAR
STARTCHAR dotaccent
ENCODING 729
SWIDTH 520 0
DWIDTH 9 0
BBX 1 1 3 9
BITMAP
80
ENDCHAR
STARTCHAR ring
ENCODING 730
SWIDTH 520 0
DWIDTH 9 0
BBX 4 4 2 8
BITMAP
60
90
90
60
ENDCHAR
STARTCHAR ogonek
ENCODING 731
SWIDTH 520 0
DWIDTH 9 0
BBX 2 3 6 -3
BITMAP
80
80
40
ENDCHAR
STARTCHAR tilde
ENCODING 732
SWIDTH 520 0
DWIDTH 9 0
BBX 6 2 1 8
BITMAP
E4
98
ENDCHAR
STARTCHAR hungarumlaut
ENCODING 733
SWIDTH 520 0
DWIDTH 9 0
BBX 6 3 1 8
BITMAP
6C
48
D8
ENDCHAR
STARTCHAR tonos
ENCODING 900
SWIDTH 520 0
DWIDTH 9 0
BBX 2 4 3 9
BITMAP
C0
80
80
80
ENDCHAR
STARTCHAR dieresistonos
ENCODING 901
SWIDTH 520 0
DWIDTH 9 0
BBX 7 4 0 9
BITMAP
18
10
10
92
ENDCHAR
STARTCHAR Alphatonos
ENCODING 902
SWIDTH 520 0
DWIDTH 9 0
BBX 8 13 0 0
BITMAP
C0
80
80
98
28
28
24
44
44
7E
82
82
81
ENDCHAR
STARTCHAR Epsilontonos
ENCODING 904
SWIDTH 520 0
DWIDTH 9 0
BBX 8 13 -1 0
BITMAP
80
80
80
FF
40
40
40
7C
40
40
40
40
7F
ENDCHAR
STARTCHAR Etatonos
ENCODING 905
SWIDTH 520 0
DWIDTH 9 0
BBX 8 13 -1 0
BITMAP
80
80
80
C1
41
41
41
7F
41
41
41
41
41
ENDCHAR
STARTCHAR Iotatonos
ENCODING 906
SWIDTH 520 0
DWIDTH 9 0
BBX 6 13 0 0
BITMAP
C0
80
80
FC
10
10
10
10
10
10
10
10
7C
ENDCHAR
STARTCHAR Omicrontonos
ENCODING 908
SWIDTH 520 0
DWIDTH 9 0
BBX 9 13 -1 0
BITMAP
8000
8000
8000
9E00
2100
4080
4080
4080
4080
4080
4080
2100
1E00
ENDCHAR
STARTCHAR Upsilontonos
ENCODING 910
SWIDTH 520 0
DWIDTH 9 0
BBX 8 13 -1 0
BITMAP
80
80
80
F7
22
22
14
14
08
08
08
08
3E
ENDCHAR
STARTCHAR Omegatonos
ENCODING 911
SWIDTH 520 0
DWIDTH 9 0
BBX 9 13 -1 0
BITMAP
8000
8000
8000
9E00
2100
4080
4080
4080
4080
4080
2100
1200
7380
ENDCHAR
STARTCHAR iotadieresistonos
ENCODING 912
SWIDTH 520 0
DWIDTH 9 0
BBX 7 13 0 0
BITMAP
18
10
10
92
00
00
70
10
10
10
10
10
1C
ENDCHAR
STARTCHAR Alpha
ENCODING 913
SWIDTH 520 0
DWIDTH 9 0
BBX 8 10 0 0
BITMAP
18
28
28
24
44
44
7E
82
82
81
ENDCHAR
STARTCHAR Beta
ENCODING 914
SWIDTH 520 0
DWIDTH 9 0
BBX 7 10 0 0
BITMAP
FC
82
82
82
FC
86
82
82
86
FC
ENDCHAR
STARTCHAR Gamma
ENCODING 915
SWIDTH 520 0
DWIDTH 9 0
BBX 7 10 0 0
BITMAP
FE
80
80
80
80
80
80
80
80
80
ENDCHAR
STARTCHAR uni0394
ENCODING 916
SWIDTH 520 0
DWIDTH 9 0
BBX 8 10 0 0
BITMAP
18
28
28
24
44
44
42
82
82
FF
ENDCHAR
STARTCHAR Epsilon
ENCODING 917
SWIDTH 520 0
DWIDTH 9 0
BBX 7 10 0 0
BITMAP
FE
80
80
80
F8
80
80
80
80
FE
ENDCHAR
STARTCHAR Zeta
ENCODING 918
SWIDTH 520 0
DWIDTH 9 0
BBX 7 10 0 0
BITMAP
FE
84
8C
88
10
30
22
42
C2
FE
ENDCHAR
STARTCHAR Eta
ENCODING 919
SWIDTH 520 0
DWIDTH 9 0
BBX 7 10 0 0
BITMAP
82
82
82
82
FE
82
82
82
82
82
ENDCHAR
STARTCHAR Theta
ENCODING 920
SWIDTH 520 0
DWIDTH 9 0
BBX 8 10 0 0
BITMAP
3C
42
81
81
BD
81
81
81
42
3C
ENDCHAR
STARTCHAR Iota
ENCODING 921
SWIDTH 520 0
DWIDTH 9 0
BBX 5 10 1 0
BITMAP
F8
20
20
20
20
20
20
20
20
F8
ENDCHAR
STARTCHAR Kappa
ENCODING 922
SWIDTH 520 0
DWIDTH 9 0
BBX 7 10 0 0
BITMAP
86
88
98
B0
E0
F0
90
88
84
86
ENDCHAR
STARTCHAR Lambda
ENCODING 923
SWIDTH 520 0
DWIDTH 9 0
BBX 8 10 0 0
BITMAP
18
38
28
24
64
44
42
C2
82
81
ENDCHAR
STARTCHAR Mu
ENCODING 924
SWIDTH 520 0
DWIDTH 9 0
BBX 7 10 0 0
BITMAP
C6
C6
C6
AA
AA
BA
92
82
82
82
ENDCHAR
STARTCHAR Nu
ENCODING 925
SWIDTH 520 0
DWIDTH 9 0
BBX 7 10 0 0
BITMAP
C2
C2
A2
B2
92
9A
8A
8E
86
86
ENDCHAR
STARTCHAR Xi
ENCODING 926
SWIDTH 520 0
DWIDTH 9 0
BBX 8 10 0 0
BITMAP
FF
81
00
00
3C
00
00
00
81
FF
ENDCHAR
STARTCHAR Omicron
ENCODING 927
SWIDTH 520 0
DWIDTH 9 0
BBX 8 10 0 0
BITMAP
3C
42
81
81
81
81
81
81
42
3C
ENDCHAR
STARTCHAR Pi
ENCODING 928
SWIDTH 520 0
DWIDTH 9 0
BBX 7 10 0 0
BITMAP
FE
82
82
82
82
82
82
82
82
82
ENDCHAR
STARTCHAR Rho
ENCODING 929
SWIDTH 520 0
DWIDTH 9 0
BBX 8 10 0 0
BITMAP
FE
83
81
81
83
FC
80
80
80
80
ENDCHAR
STARTCHAR Sigma
ENCODING 931
SWIDTH 520 0
DWIDTH 9 0
BBX 7 10 0 0
BITMAP
FE
42
62
22
10
10
22
62
42
FE
ENDCHAR
STARTCHAR Tau
ENCODING 932
SWIDTH 520 0
DWIDTH 8 0
BBX 7 10 0 0
BITMAP
FE
92
92
92
10
10
10
10
10
7C
ENDCHAR
STARTCHAR Upsilon
ENCODING 933
SWIDTH 520 0
DWIDTH 9 0
BBX 7 10 0 0
BITMAP
EE
44
44
28
28
10
10
10
10
7C
ENDCHAR
STARTCHAR Phi
ENCODING 934
SWIDTH 520 0
DWIDTH 9 0
BBX 8 10 0 0
BITMAP
10
38
56
91
91
91
91
56
38
10
ENDCHAR
STARTCHAR Chi
ENCODING 935
SWIDTH 520 0
DWIDTH 9 0
BBX 8 10 0 0
BITMAP
EE
44
2C
28
18
18
28
24
44
E7
ENDCHAR
STARTCHAR Psi
ENCODING 936
SWIDTH 520 0
DWIDTH 9 0
BBX 7 10 0 0
BITMAP
92
92
92
92
92
92
54
38
10
10
ENDCHAR
STARTCHAR uni03A9
ENCODING 937
SWIDTH 520 0
DWIDTH 9 0
BBX 8 10 0 0
BITMAP
3C
42
81
81
81
81
81
42
24
E7
ENDCHAR
STARTCHAR Iotadieresis
ENCODING 938
SWIDTH 520 0
DWIDTH 9 0
BBX 5 13 1 0
BITMAP
C8
00
00
F8
20
20
20
20
20
20
20
20
F8
ENDCHAR
STARTCHAR Upsilondieresis
ENCODING 939
SWIDTH 520 0
DWIDTH 9 0
BBX 7 13 0 0
BITMAP
64
00
00
EE
44
44
28
28
10
10
10
10
7C
ENDCHAR
STARTCHAR alphatonos
ENCODING 940
SWIDTH 520 0
DWIDTH 9 0
BBX 7 13 0 0
BITMAP
18
10
10
10
00
00
7A
8E
86
84
86
8E
7A
ENDCHAR
STARTCHAR epsilontonos
ENCODING 941
SWIDTH 520 0
DWIDTH 9 0
BBX 7 13 0 0
BITMAP
18
10
10
10
00
00
7C
86
80
78
80
82
7C
ENDCHAR
STARTCHAR etatonos
ENCODING 942
SWIDTH 520 0
DWIDTH 9 0
BBX 7 16 0 -3
BITMAP
18
10
10
10
00
00
DC
62
42
42
42
42
42
02
02
02
ENDCHAR
STARTCHAR iotatonos
ENCODING 943
SWIDTH 520 0
DWIDTH 9 0
BBX 5 13 1 0
BITMAP
30
20
20
20
00
00
E0
20
20
20
20
20
38
ENDCHAR
STARTCHAR upsilondieresistonos
ENCODING 944
SWIDTH 520 0
DWIDTH 9 0
BBX 8 13 0 0
BITMAP
18
10
10
92
00
00
81
81
81
81
81
C2
7C
ENDCHAR
STARTCHAR alpha
ENCODING 945
SWIDTH 520 0
DWIDTH 9 0
BBX 7 7 0 0
BITMAP
7A
8E
86
84
86
8E
7A
ENDCHAR
STARTCHAR beta
ENCODING 946
SWIDTH 520 0
DWIDTH 9 0
BBX 8 13 0 -3
BITMAP
3C
C2
82
82
9C
83
81
81
83
FC
80
80
80
ENDCHAR
STARTCHAR gamma
ENCODING 947
SWIDTH 520 0
DWIDTH 9 0
BBX 7 10 0 -3
BITMAP
82
C6
44
44
24
28
18
10
10
10
ENDCHAR
STARTCHAR delta
ENCODING 948
SWIDTH 520 0
DWIDTH 9 0
BBX 7 10 0 0
BITMAP
3C
20
20
18
64
82
82
82
C6
7C
ENDCHAR
STARTCHAR epsilon
ENCODING 949
SWIDTH 520 0
DWIDTH 9 0
BBX 7 7 0 0
BITMAP
7C
86
80
78
80
82
7C
ENDCHAR
STARTCHAR zeta
ENCODING 950
SWIDTH 520 0
DWIDTH 9 0
BBX 7 13 0 -3
BITMAP
7E
08
30
40
80
80
80
80
40
3C
02
02
04
ENDCHAR
STARTCHAR eta
ENCODING 951
SWIDTH 520 0
DWIDTH 9 0
BBX 7 10 0 -3
BITMAP
DC
62
42
42
42
42
42
02
02
02
ENDCHAR
STARTCHAR theta
ENCODING 952
SWIDTH 520 0
DWIDTH 9 0
BBX 7 10 0 0
BITMAP
38
44
82
82
FE
82
82
82
44
38
ENDCHAR
STARTCHAR iota
ENCODING 953
SWIDTH 520 0
DWIDTH 9 0
BBX 5 7 1 0
BITMAP
E0
20
20
20
20
20
38
ENDCHAR
STARTCHAR kappa
ENCODING 954
SWIDTH 520 0
DWIDTH 9 0
BBX 7 7 0 0
BITMAP
86
88
B0
E0
90
88
86
ENDCHAR
STARTCHAR lambda
ENCODING 955
SWIDTH 520 0
DWIDTH 9 0
BBX 8 10 0 0
BITMAP
E0
10
10
18
28
2C
64
44
C2
83
ENDCHAR
STARTCHAR uni03BC
ENCODING 956
SWIDTH 520 0
DWIDTH 9 0
BBX 7 10 0 -3
BITMAP
84
84
84
84
84
8C
FE
80
80
80
ENDCHAR
STARTCHAR nu
ENCODING 957
SWIDTH 520 0
DWIDTH 9 0
BBX 7 7 0 0
BITMAP
82
42
44
24
24
38
10
ENDCHAR
STARTCHAR xi
ENCODING 958
SWIDTH 520 0
DWIDTH 9 0
BBX 7 13 0 -3
BITMAP
78
84
80
80
78
C0
80
80
C0
3C
02
02
04
ENDCHAR
STARTCHAR omicron
ENCODING 959
SWIDTH 520 0
DWIDTH 9 0
BBX 8 7 0 0
BITMAP
3C
42
81
81
81
42
3C
ENDCHAR
STARTCHAR pi
ENCODING 960
SWIDTH 520 0
DWIDTH 9 0
BBX 8 7 0 0
BITMAP
FF
24
24
24
24
24
27
ENDCHAR
STARTCHAR rho
ENCODING 961
SWIDTH 520 0
DWIDTH 9 0
BBX 8 10 0 -3
BITMAP
3C
42
81
81
81
82
FC
80
80
80
ENDCHAR
STARTCHAR sigma1
ENCODING 962
SWIDTH 520 0
DWIDTH 9 0
BBX 7 10 0 -3
BITMAP
3C
42
80
80
80
40
3C
02
02
04
ENDCHAR
STARTCHAR sigma
ENCODING 963
SWIDTH 520 0
DWIDTH 9 0
BBX 8 7 0 0
BITMAP
3F
44
82
82
82
46
38
ENDCHAR
STARTCHAR tau
ENCODING 964
SWIDTH 520 0
DWIDTH 9 0
BBX 7 7 0 0
BITMAP
FE
10
10
10
10
10
1C
ENDCHAR
STARTCHAR upsilon
ENCODING 965
SWIDTH 520 0
DWIDTH 9 0
BBX 8 7 0 0
BITMAP
81
81
81
81
81
C2
7C
ENDCHAR
STARTCHAR phi
ENCODING 966
SWIDTH 520 0
DWIDTH 9 0
BBX 8 10 0 -3
BITMAP
9E
D2
91
91
91
92
74
18
10
10
ENDCHAR
STARTCHAR chi
ENCODING 967
SWIDTH 520 0
DWIDTH 9 0
BBX 7 10 0 -3
BITMAP
82
46
64
28
18
18
28
64
44
82
ENDCHAR
STARTCHAR psi
ENCODING 968
SWIDTH 520 0
DWIDTH 9 0
BBX 7 12 0 -3
BITMAP
10
10
92
92
92
92
92
92
7C
10
10
10
ENDCHAR
STARTCHAR omega
ENCODING 969
SWIDTH 520 0
DWIDTH 8 0
BBX 7 7 0 0
BITMAP
82
92
92
92
92
92
6C
ENDCHAR
STARTCHAR iotadieresis
ENCODING 970
SWIDTH 520 0
DWIDTH 9 0
BBX 5 10 1 0
BITMAP
C8
00
00
E0
20
20
20
20
20
38
ENDCHAR
STARTCHAR upsilondieresis
ENCODING 971
SWIDTH 520 0
DWIDTH 9 0
BBX 8 10 0 0
BITMAP
64
00
00
81
81
81
81
81
C2
7C
ENDCHAR
STARTCHAR omicrontonos
ENCODING 972
SWIDTH 520 0
DWIDTH 9 0
BBX 8 13 0 0
BITMAP
18
10
10
10
00
00
3C
42
81
81
81
42
3C
ENDCHAR
STARTCHAR upsilontonos
ENCODING 973
SWIDTH 520 0
DWIDTH 9 0
BBX 8 13 0 0
BITMAP
18
10
10
10
00
00
81
81
81
81
81
C2
7C
ENDCHAR
STARTCHAR omegatonos
ENCODING 974
SWIDTH 520 0
DWIDTH 8 0
BBX 7 13 0 0
BITMAP
18
10
10
10
00
00
82
92
92
92
92
92
6C
ENDCHAR
STARTCHAR afii10023
ENCODING 1025
SWIDTH 520 0
DWIDTH 9 0
BBX 7 13 0 0
BITMAP
64
00
00
FE
80
80
80
F8
80
80
80
80
FE
ENDCHAR
STARTCHAR afii10051
ENCODING 1026
SWIDTH 520 0
DWIDTH 9 0
BBX 8 10 -1 0
BITMAP
E0
40
40
5E
61
41
41
41
41
47
ENDCHAR
STARTCHAR afii10052
ENCODING 1027
SWIDTH 520 0
DWIDTH 9 0
BBX 7 14 0 0
BITMAP
08
1C
20
00
FE
80
80
80
80
80
80
80
80
80
ENDCHAR
STARTCHAR afii10053
ENCODING 1028
SWIDTH 520 0
DWIDTH 9 0
BBX 8 10 0 0
BITMAP
3D
43
81
80
FC
80
80
C1
42
3C
ENDCHAR
STARTCHAR afii10054
ENCODING 1029
SWIDTH 520 0
DWIDTH 9 0
BBX 7 10 0 0
BITMAP
7A
86
82
C0
70
0C
02
82
C6
BC
ENDCHAR
STARTCHAR afii10055
ENCODING 1030
SWIDTH 520 0
DWIDTH 9 0
BBX 5 10 1 0
BITMAP
F8
20
20
20
20
20
20
20
20
F8
ENDCHAR
STARTCHAR afii10056
ENCODING 1031
SWIDTH 520 0
DWIDTH 9 0
BBX 5 13 1 0
BITMAP
C8
00
00
F8
20
20
20
20
20
20
20
20
F8
ENDCHAR
STARTCHAR afii10057
ENCODING 1032
SWIDTH 520 0
DWIDTH 9 0
BBX 7 10 0 0
BITMAP
02
02
02
02
02
02
02
82
46
3C
ENDCHAR
STARTCHAR afii10058
ENCODING 1033
SWIDTH 520 0
DWIDTH 9 0
BBX 8 10 -1 0
BITMAP
78
48
48
48
4E
49
49
49
49
CE
ENDCHAR
STARTCHAR afii10059
ENCODING 1034
SWIDTH 520 0
DWIDTH 9 0
BBX 7 10 0 0
BITMAP
90
90
90
90
FC
92
92
92
92
9C
ENDCHAR
STARTCHAR afii10060
ENCODING 1035
SWIDTH 520 0
DWIDTH 9 0
BBX 8 10 -1 0
BITMAP
E0
40
40
5E
61
41
41
41
41
41
ENDCHAR
STARTCHAR afii10061
ENCODING 1036
SWIDTH 520 0
DWIDTH 9 0
BBX 7 14 0 0
BITMAP
08
1C
20
00
86
88
98
B0
E0
F0
90
88
84
86
ENDCHAR
STARTCHAR afii10062
ENCODING 1038
SWIDTH 520 0
DWIDTH 9 0
BBX 8 13 0 0
BITMAP
7C
00
00
83
C2
44
64
2C
28
18
10
30
E0
ENDCHAR
STARTCHAR afii10145
ENCODING 1039
SWIDTH 520 0
DWIDTH 9 0
BBX 7 13 0 -3
BITMAP
82
82
82
82
82
82
82
82
82
FE
10
10
10
ENDCHAR
STARTCHAR afii10017
ENCODING 1040
SWIDTH 520 0
DWIDTH 9 0
BBX 8 10 0 0
BITMAP
18
28
28
24
44
44
7E
82
82
81
ENDCHAR
STARTCHAR afii10018
ENCODING 1041
SWIDTH 520 0
DWIDTH 9 0
BBX 8 10 0 0
BITMAP
FE
80
80
80
FC
83
81
81
83
FE
ENDCHAR
STARTCHAR afii10019
ENCODING 1042
SWIDTH 520 0
DWIDTH 9 0
BBX 7 10 0 0
BITMAP
FC
82
82
82
FC
86
82
82
86
FC
ENDCHAR
STARTCHAR afii10020
ENCODING 1043
SWIDTH 520 0
DWIDTH 9 0
BBX 7 10 0 0
BITMAP
FE
80
80
80
80
80
80
80
80
80
ENDCHAR
STARTCHAR afii10021
ENCODING 1044
SWIDTH 520 0
DWIDTH 8 0
BBX 7 13 0 -3
BITMAP
3C
24
24
24
24
24
24
44
44
FE
82
82
82
ENDCHAR
STARTCHAR afii10022
ENCODING 1045
SWIDTH 520 0
DWIDTH 9 0
BBX 7 10 0 0
BITMAP
FE
80
80
80
F8
80
80
80
80
FE
ENDCHAR
STARTCHAR afii10024
ENCODING 1046
SWIDTH 520 0
DWIDTH 9 0
BBX 9 10 -1 0
BITMAP
C980
4900
2A00
2A00
1C00
2A00
2A00
6B00
4900
C980
ENDCHAR
STARTCHAR afii10025
ENCODING 1047
SWIDTH 520 0
DWIDTH 9 0
BBX 7 10 0 0
BITMAP
BC
C2
82
02
1C
06
02
82
C6
3C
ENDCHAR
STARTCHAR afii10026
ENCODING 1048
SWIDTH 520 0
DWIDTH 9 0
BBX 7 10 0 0
BITMAP
86
86
8A
9A
92
B2
A2
E2
C2
C2
ENDCHAR
STARTCHAR afii10027
ENCODING 1049
SWIDTH 520 0
DWIDTH 9 0
BBX 7 13 0 0
BITMAP
7C
00
00
86
86
8A
9A
92
B2
A2
E2
C2
C2
ENDCHAR
STARTCHAR afii10028
ENCODING 1050
SWIDTH 520 0
DWIDTH 9 0
BBX 7 10 0 0
BITMAP
86
88
98
B0
E0
F0
90
88
84
86
ENDCHAR
STARTCHAR afii10029
ENCODING 1051
SWIDTH 520 0
DWIDTH 9 0
BBX 8 10 -1 0
BITMAP
3F
21
21
21
21
21
21
21
21
E1
ENDCHAR
STARTCHAR afii10030
ENCODING 1052
SWIDTH 520 0
DWIDTH 9 0
BBX 7 10 0 0
BITMAP
C6
C6
C6
AA
AA
BA
92
82
82
82
ENDCHAR
STARTCHAR afii10031
ENCODING 1053
SWIDTH 520 0
DWIDTH 9 0
BBX 7 10 0 0
BITMAP
82
82
82
82
FE
82
82
82
82
82
ENDCHAR
STARTCHAR afii10032
ENCODING 1054
SWIDTH 520 0
DWIDTH 9 0
BBX 8 10 0 0
BITMAP
3C
42
81
81
81
81
81
81
42
3C
ENDCHAR
STARTCHAR afii10033
ENCODING 1055
SWIDTH 520 0
DWIDTH 9 0
BBX 7 10 0 0
BITMAP
FE
82
82
82
82
82
82
82
82
82
ENDCHAR
STARTCHAR afii10034
ENCODING 1056
SWIDTH 520 0
DWIDTH 9 0
BBX 8 10 0 0
BITMAP
FE
83
81
81
83
FC
80
80
80
80
ENDCHAR
STARTCHAR afii10035
ENCODING 1057
SWIDTH 520 0
DWIDTH 9 0
BBX 8 10 0 0
BITMAP
3D
43
81
81
80
80
80
81
42
3C
ENDCHAR
STARTCHAR afii10036
ENCODING 1058
SWIDTH 520 0
DWIDTH 8 0
BBX 7 10 0 0
BITMAP
FE
92
92
92
10
10
10
10
10
7C
ENDCHAR
STARTCHAR afii10037
ENCODING 1059
SWIDTH 520 0
DWIDTH 9 0
BBX 8 10 0 0
BITMAP
83
C2
44
64
2C
28
18
10
30
E0
ENDCHAR
STARTCHAR afii10038
ENCODING 1060
SWIDTH 520 0
DWIDTH 9 0
BBX 8 10 0 0
BITMAP
10
38
56
91
91
91
91
56
38
10
ENDCHAR
STARTCHAR afii10039
ENCODING 1061
SWIDTH 520 0
DWIDTH 9 0
BBX 8 10 0 0
BITMAP
EE
44
2C
28
18
18
28
24
44
E7
ENDCHAR
STARTCHAR afii10040
ENCODING 1062
SWIDTH 520 0
DWIDTH 9 0
BBX 8 13 0 -3
BITMAP
82
82
82
82
82
82
82
82
82
FF
01
01
01
ENDCHAR
STARTCHAR afii10041
ENCODING 1063
SWIDTH 520 0
DWIDTH 9 0
BBX 7 10 0 0
BITMAP
82
82
82
82
82
86
7A
02
02
02
ENDCHAR
STARTCHAR afii10042
ENCODING 1064
SWIDTH 520 0
DWIDTH 8 0
BBX 7 10 0 0
BITMAP
92
92
92
92
92
92
92
92
92
FE
ENDCHAR
STARTCHAR afii10043
ENCODING 1065
SWIDTH 520 0
DWIDTH 8 0
BBX 8 13 0 -3
BITMAP
92
92
92
92
92
92
92
92
92
FF
01
01
01
ENDCHAR
STARTCHAR afii10044
ENCODING 1066
SWIDTH 520 0
DWIDTH 9 0
BBX 8 10 0 0
BITMAP
E0
20
20
20
3E
21
21
21
21
3E
ENDCHAR
STARTCHAR afii10045
ENCODING 1067
SWIDTH 520 0
DWIDTH 8 0
BBX 7 10 0 0
BITMAP
82
82
82
82
F2
8A
8A
8A
8A
F2
ENDCHAR
STARTCHAR afii10046
ENCODING 1068
SWIDTH 520 0
DWIDTH 9 0
BBX 8 10 0 0
BITMAP
80
80
80
80
FC
83
81
81
83
FE
ENDCHAR
STARTCHAR afii10047
ENCODING 1069
SWIDTH 520 0
DWIDTH 9 0
BBX 8 10 0 0
BITMAP
BC
C2
81
01
3F
01
01
83
42
3C
ENDCHAR
STARTCHAR afii10048
ENCODING 1070
SWIDTH 520 0
DWIDTH 8 0
BBX 7 10 0 0
BITMAP
8C
92
92
92
F2
92
92
92
92
8C
ENDCHAR
STARTCHAR afii10049
ENCODING 1071
SWIDTH 520 0
DWIDTH 9 0
BBX 7 10 0 0
BITMAP
7E
82
82
82
82
7E
12
22
62
C2
ENDCHAR
STARTCHAR afii10065
ENCODING 1072
SWIDTH 520 0
DWIDTH 9 0
BBX 7 7 0 0
BITMAP
7C
82
02
7E
82
86
7A
ENDCHAR
STARTCHAR afii10066
ENCODING 1073
SWIDTH 520 0
DWIDTH 9 0
BBX 8 10 0 0
BITMAP
3F
40
80
BC
C2
81
81
81
42
3C
ENDCHAR
STARTCHAR afii10067
ENCODING 1074
SWIDTH 520 0
DWIDTH 9 0
BBX 8 7 0 0
BITMAP
FC
82
82
FC
83
81
FE
ENDCHAR
STARTCHAR afii10068
ENCODING 1075
SWIDTH 520 0
DWIDTH 9 0
BBX 7 7 0 0
BITMAP
FE
80
80
80
80
80
80
ENDCHAR
STARTCHAR afii10069
ENCODING 1076
SWIDTH 520 0
DWIDTH 8 0
BBX 7 10 0 -3
BITMAP
3C
24
24
24
44
44
FE
82
82
82
ENDCHAR
STARTCHAR afii10070
ENCODING 1077
SWIDTH 520 0
DWIDTH 9 0
BBX 7 7 0 0
BITMAP
3C
42
82
FE
80
42
3C
ENDCHAR
STARTCHAR afii10072
ENCODING 1078
SWIDTH 520 0
DWIDTH 9 0
BBX 7 7 0 0
BITMAP
92
54
38
38
54
54
92
ENDCHAR
STARTCHAR afii10073
ENCODING 1079
SWIDTH 520 0
DWIDTH 9 0
BBX 7 7 0 0
BITMAP
3C
42
02
1C
02
82
7C
ENDCHAR
STARTCHAR afii10074
ENCODING 1080
SWIDTH 520 0
DWIDTH 9 0
BBX 7 7 0 0
BITMAP
86
8E
9A
92
A2
E2
C2
ENDCHAR
STARTCHAR afii10075
ENCODING 1081
SWIDTH 520 0
DWIDTH 9 0
BBX 7 10 0 0
BITMAP
7C
00
00
86
8E
9A
92
A2
E2
C2
ENDCHAR
STARTCHAR afii10076
ENCODING 1082
SWIDTH 520 0
DWIDTH 9 0
BBX 7 7 0 0
BITMAP
86
88
B0
E0
90
88
86
ENDCHAR
STARTCHAR afii10077
ENCODING 1083
SWIDTH 520 0
DWIDTH 9 0
BBX 8 7 -1 0
BITMAP
3F
21
21
21
21
21
E1
ENDCHAR
STARTCHAR afii10078
ENCODING 1084
SWIDTH 520 0
DWIDTH 9 0
BBX 7 7 0 0
BITMAP
C6
C6
AA
AA
92
82
82
ENDCHAR
STARTCHAR afii10079
ENCODING 1085
SWIDTH 520 0
DWIDTH 9 0
BBX 7 7 0 0
BITMAP
82
82
82
FE
82
82
82
ENDCHAR
STARTCHAR afii10080
ENCODING 1086
SWIDTH 520 0
DWIDTH 9 0
BBX 8 7 0 0
BITMAP
3C
42
81
81
81
42
3C
ENDCHAR
STARTCHAR afii10081
ENCODING 1087
SWIDTH 520 0
DWIDTH 9 0
BBX 7 7 0 0
BITMAP
FE
82
82
82
82
82
82
ENDCHAR
STARTCHAR afii10082
ENCODING 1088
SWIDTH 520 0
DWIDTH 9 0
BBX 8 10 0 -3
BITMAP
BC
C2
81
81
81
82
FC
80
80
80
ENDCHAR
STARTCHAR afii10083
ENCODING 1089
SWIDTH 520 0
DWIDTH 9 0
BBX 7 7 0 0
BITMAP
3A
46
82
80
80
42
3C
ENDCHAR
STARTCHAR afii10084
ENCODING 1090
SWIDTH 520 0
DWIDTH 8 0
BBX 7 7 0 0
BITMAP
FE
92
92
92
10
10
7C
ENDCHAR
STARTCHAR afii10085
ENCODING 1091
SWIDTH 520 0
DWIDTH 9 0
BBX 8 10 0 -3
BITMAP
83
C2
44
44
2C
28
18
10
30
E0
ENDCHAR
STARTCHAR afii10086
ENCODING 1092
SWIDTH 520 0
DWIDTH 6 0
BBX 5 13 0 -3
BITMAP
20
20
20
70
A8
A8
A8
A8
A8
70
20
20
20
ENDCHAR
STARTCHAR afii10087
ENCODING 1093
SWIDTH 520 0
DWIDTH 9 0
BBX 8 7 0 0
BITMAP
EE
64
28
10
28
64
EF
ENDCHAR
STARTCHAR afii10088
ENCODING 1094
SWIDTH 520 0
DWIDTH 9 0
BBX 8 10 0 -3
BITMAP
82
82
82
82
82
82
FF
01
01
01
ENDCHAR
STARTCHAR afii10089
ENCODING 1095
SWIDTH 520 0
DWIDTH 9 0
BBX 7 7 0 0
BITMAP
82
82
82
86
7A
02
02
ENDCHAR
STARTCHAR afii10090
ENCODING 1096
SWIDTH 520 0
DWIDTH 8 0
BBX 7 7 0 0
BITMAP
92
92
92
92
92
92
FE
ENDCHAR
STARTCHAR afii10091
ENCODING 1097
SWIDTH 520 0
DWIDTH 8 0
BBX 8 10 0 -3
BITMAP
92
92
92
92
92
92
FF
01
01
01
ENDCHAR
STARTCHAR afii10092
ENCODING 1098
SWIDTH 520 0
DWIDTH 9 0
BBX 8 7 0 0
BITMAP
E0
20
20
3E
21
21
3E
ENDCHAR
STARTCHAR afii10093
ENCODING 1099
SWIDTH 520 0
DWIDTH 8 0
BBX 7 7 0 0
BITMAP
82
82
82
F2
8A
8A
F2
ENDCHAR
STARTCHAR afii10094
ENCODING 1100
SWIDTH 520 0
DWIDTH 9 0
BBX 8 7 0 0
BITMAP
80
80
80
FE
81
81
FE
ENDCHAR
STARTCHAR afii10095
ENCODING 1101
SWIDTH 520 0
DWIDTH 9 0
BBX 7 7 0 0
BITMAP
7C
C6
02
3E
02
C6
7C
ENDCHAR
STARTCHAR afii10096
ENCODING 1102
SWIDTH 520 0
DWIDTH 8 0
BBX 7 7 0 0
BITMAP
8C
92
92
F2
92
92
8C
ENDCHAR
STARTCHAR afii10097
ENCODING 1103
SWIDTH 520 0
DWIDTH 9 0
BBX 7 7 0 0
BITMAP
7E
82
82
7E
32
62
C2
ENDCHAR
STARTCHAR afii10071
ENCODING 1105
SWIDTH 520 0
DWIDTH 9 0
BBX 7 10 0 0
BITMAP
64
00
00
3C
42
82
FE
80
42
3C
ENDCHAR
STARTCHAR afii10099
ENCODING 1106
SWIDTH 520 0
DWIDTH 9 0
BBX 8 13 -1 -3
BITMAP
40
E0
40
5E
61
41
41
41
41
41
01
01
06
ENDCHAR
STARTCHAR afii10100
ENCODING 1107
SWIDTH 520 0
DWIDTH 9 0
BBX 7 11 0 0
BITMAP
08
1C
20
00
FE
80
80
80
80
80
80
ENDCHAR
STARTCHAR afii10101
ENCODING 1108
SWIDTH 520 0
DWIDTH 9 0
BBX 7 7 0 0
BITMAP
3C
42
80
F8
80
42
3C
ENDCHAR
STARTCHAR afii10102
ENCODING 1109
SWIDTH 520 0
DWIDTH 9 0
BBX 7 7 0 0
BITMAP
7C
84
80
7C
02
82
7C
ENDCHAR
STARTCHAR afii10103
ENCODING 1110
SWIDTH 520 0
DWIDTH 9 0
BBX 5 10 1 0
BITMAP
20
00
00
E0
20
20
20
20
20
F8
ENDCHAR
STARTCHAR afii10104
ENCODING 1111
SWIDTH 520 0
DWIDTH 9 0
BBX 5 10 1 0
BITMAP
C8
00
00
E0
20
20
20
20
20
F8
ENDCHAR
STARTCHAR afii10105
ENCODING 1112
SWIDTH 520 0
DWIDTH 9 0
BBX 6 13 0 -3
BITMAP
04
00
00
1C
04
04
04
04
04
04
04
C4
78
ENDCHAR
STARTCHAR afii10106
ENCODING 1113
SWIDTH 520 0
DWIDTH 8 0
BBX 8 7 -1 0
BITMAP
78
48
48
4E
49
49
CE
ENDCHAR
STARTCHAR afii10107
ENCODING 1114
SWIDTH 520 0
DWIDTH 8 0
BBX 7 7 0 0
BITMAP
90
90
90
FC
92
92
9C
ENDCHAR
STARTCHAR afii10108
ENCODING 1115
SWIDTH 520 0
DWIDTH 9 0
BBX 8 10 -1 0
BITMAP
40
E0
40
5E
61
41
41
41
41
41
ENDCHAR
STARTCHAR afii10109
ENCODING 1116
SWIDTH 520 0
DWIDTH 9 0
BBX 7 11 0 0
BITMAP
08
1C
20
00
86
88
B0
E0
90
88
86
ENDCHAR
STARTCHAR afii10110
ENCODING 1118
SWIDTH 520 0
DWIDTH 9 0
BBX 8 13 0 -3
BITMAP
7C
00
00
83
C2
44
44
2C
28
18
10
30
E0
ENDCHAR
STARTCHAR afii10193
ENCODING 1119
SWIDTH 520 0
DWIDTH 9 0
BBX 7 10 0 -3
BITMAP
82
82
82
82
82
82
FE
10
10
10
ENDCHAR
STARTCHAR afii10050
ENCODING 1168
SWIDTH 520 0
DWIDTH 9 0
BBX 8 12 0 0
BITMAP
01
01
FF
80
80
80
80
80
80
80
80
80
ENDCHAR
STARTCHAR afii10098
ENCODING 1169
SWIDTH 520 0
DWIDTH 9 0
BBX 8 9 0 0
BITMAP
01
01
FF
80
80
80
80
80
80
ENDCHAR
STARTCHAR uni1E02
ENCODING 7682
SWIDTH 520 0
DWIDTH 9 0
BBX 7 13 0 0
BITMAP
10
00
00
FC
82
82
82
FC
86
82
82
86
FC
ENDCHAR
STARTCHAR uni1E03
ENCODING 7683
SWIDTH 520 0
DWIDTH 9 0
BBX 8 13 0 0
BITMAP
10
00
00
80
80
80
BC
C2
81
81
81
82
FC
ENDCHAR
STARTCHAR uni1E0A
ENCODING 7690
SWIDTH 520 0
DWIDTH 9 0
BBX 8 13 0 0
BITMAP
10
00
00
FC
82
81
81
81
81
81
81
82
FC
ENDCHAR
STARTCHAR uni1E0B
ENCODING 7691
SWIDTH 520 0
DWIDTH 9 0
BBX 7 13 0 0
BITMAP
10
00
00
06
02
02
3E
42
82
82
82
42
3E
ENDCHAR
STARTCHAR uni1E1E
ENCODING 7710
SWIDTH 520 0
DWIDTH 9 0
BBX 7 13 0 0
BITMAP
10
00
00
FE
80
80
80
F8
80
80
80
80
80
ENDCHAR
STARTCHAR uni1E1F
ENCODING 7711
SWIDTH 520 0
DWIDTH 9 0
BBX 6 13 1 0
BITMAP
20
00
00
1C
20
20
FC
20
20
20
20
20
F8
ENDCHAR
STARTCHAR uni1E40
ENCODING 7744
SWIDTH 520 0
DWIDTH 9 0
BBX 7 13 0 0
BITMAP
10
00
00
C6
C6
C6
AA
AA
BA
92
82
82
82
ENDCHAR
STARTCHAR uni1E41
ENCODING 7745
SWIDTH 520 0
DWIDTH 8 0
BBX 7 10 0 0
BITMAP
10
00
00
FE
92
92
92
92
92
92
ENDCHAR
STARTCHAR uni1E56
ENCODING 7766
SWIDTH 520 0
DWIDTH 9 0
BBX 8 13 0 0
BITMAP
10
00
00
FE
83
81
81
83
FC
80
80
80
80
ENDCHAR
STARTCHAR uni1E57
ENCODING 7767
SWIDTH 520 0
DWIDTH 9 0
BBX 8 13 0 -3
BITMAP
10
00
00
BC
C2
81
81
81
82
FC
80
80
80
ENDCHAR
STARTCHAR uni1E60
ENCODING 7776
SWIDTH 520 0
DWIDTH 9 0
BBX 7 13 0 0
BITMAP
10
00
00
7A
86
82
C0
38
04
02
82
C6
BC
ENDCHAR
STARTCHAR uni1E61
ENCODING 7777
SWIDTH 520 0
DWIDTH 9 0
BBX 7 10 0 0
BITMAP
10
00
00
7C
84
80
7C
02
82
7C
ENDCHAR
STARTCHAR uni1E6A
ENCODING 7786
SWIDTH 520 0
DWIDTH 8 0
BBX 7 13 0 0
BITMAP
10
00
00
FE
92
92
92
10
10
10
10
10
7C
ENDCHAR
STARTCHAR uni1E6B
ENCODING 7787
SWIDTH 520 0
DWIDTH 9 0
BBX 8 13 0 0
BITMAP
10
00
00
20
20
20
FC
20
20
20
21
22
1E
ENDCHAR
STARTCHAR Wgrave
ENCODING 7808
SWIDTH 520 0
DWIDTH 9 0
BBX 9 14 -1 0
BITMAP
1000
0800
0600
0000
C080
4180
4100
4900
4D00
2D00
3500
3600
3600
3200
ENDCHAR
STARTCHAR wgrave
ENCODING 7809
SWIDTH 520 0
DWIDTH 9 0
BBX 8 11 0 0
BITMAP
20
10
0C
00
93
9A
9A
6A
6A
64
64
ENDCHAR
STARTCHAR Wacute
ENCODING 7810
SWIDTH 520 0
DWIDTH 9 0
BBX 9 14 -1 0
BITMAP
0400
0E00
1000
0000
C080
4180
4100
4900
4D00
2D00
3500
3600
3600
3200
ENDCHAR
STARTCHAR wacute
ENCODING 7811
SWIDTH 520 0
DWIDTH 9 0
BBX 8 11 0 0
BITMAP
08
1C
20
00
93
9A
9A
6A
6A
64
64
ENDCHAR
STARTCHAR Wdieresis
ENCODING 7812
SWIDTH 520 0
DWIDTH 9 0
BBX 9 13 -1 0
BITMAP
3200
0000
0000
C080
4180
4100
4900
4D00
2D00
3500
3600
3600
3200
ENDCHAR
STARTCHAR wdieresis
ENCODING 7813
SWIDTH 520 0
DWIDTH 9 0
BBX 8 10 0 0
BITMAP
64
00
00
93
9A
9A
6A
6A
64
64
ENDCHAR
STARTCHAR Ygrave
ENCODING 7922
SWIDTH 520 0
DWIDTH 9 0
BBX 7 14 0 0
BITMAP
20
10
0C
00
EE
44
44
28
28
10
10
10
10
7C
ENDCHAR
STARTCHAR ygrave
ENCODING 7923
SWIDTH 520 0
DWIDTH 9 0
BBX 8 14 0 -3
BITMAP
20
10
0C
00
83
C2
44
44
2C
28
18
10
30
E0
ENDCHAR
STARTCHAR endash
ENCODING 8211
SWIDTH 520 0
DWIDTH 9 0
BBX 7 1 0 3
BITMAP
FE
ENDCHAR
STARTCHAR emdash
ENCODING 8212
SWIDTH 520 0
DWIDTH 9 0
BBX 9 1 -1 3
BITMAP
FF80
ENDCHAR
STARTCHAR afii00208
ENCODING 8213
SWIDTH 520 0
DWIDTH 9 0
BBX 7 1 0 3
BITMAP
FE
ENDCHAR
STARTCHAR quoteleft
ENCODING 8216
SWIDTH 520 0
DWIDTH 9 0
BBX 3 4 3 6
BITMAP
60
80
80
E0
ENDCHAR
STARTCHAR quoteright
ENCODING 8217
SWIDTH 520 0
DWIDTH 9 0
BBX 3 4 1 6
BITMAP
E0
20
20
C0
ENDCHAR
STARTCHAR quotesinglbase
ENCODING 8218
SWIDTH 520 0
DWIDTH 9 0
BBX 3 4 4 -3
BITMAP
E0
20
20
C0
ENDCHAR
STARTCHAR quotedblleft
ENCODING 8220
SWIDTH 520 0
DWIDTH 9 0
BBX 8 4 0 6
BITMAP
63
84
84
E7
ENDCHAR
STARTCHAR quotedblright
ENCODING 8221
SWIDTH 520 0
DWIDTH 9 0
BBX 7 4 0 6
BITMAP
EE
22
22
CC
ENDCHAR
STARTCHAR quotedblbase
ENCODING 8222
SWIDTH 520 0
DWIDTH 9 0
BBX 7 4 0 -3
BITMAP
EE
22
26
CC
ENDCHAR
STARTCHAR dagger
ENCODING 8224
SWIDTH 520 0
DWIDTH 9 0
BBX 5 7 1 3
BITMAP
20
20
F8
20
20
20
20
ENDCHAR
STARTCHAR daggerdbl
ENCODING 8225
SWIDTH 520 0
DWIDTH 9 0
BBX 5 9 1 1
BITMAP
20
20
F8
20
20
20
F8
20
20
ENDCHAR
STARTCHAR bullet
ENCODING 8226
SWIDTH 520 0
DWIDTH 9 0
BBX 6 6 1 1
BITMAP
38
7C
7C
FC
7C
38
ENDCHAR
STARTCHAR ellipsis
ENCODING 8230
SWIDTH 520 0
DWIDTH 9 0
BBX 7 1 0 0
BITMAP
92
ENDCHAR
STARTCHAR perthousand
ENCODING 8240
SWIDTH 520 0
DWIDTH 10 0
BBX 9 10 0 0
BITMAP
E800
A800
B000
F000
2000
2000
5980
6680
A680
9980
ENDCHAR
STARTCHAR guilsinglleft
ENCODING 8249
SWIDTH 520 0
DWIDTH 9 0
BBX 3 5 2 1
BITMAP
20
40
80
40
20
ENDCHAR
STARTCHAR guilsinglright
ENCODING 8250
SWIDTH 520 0
DWIDTH 9 0
BBX 3 5 3 1
BITMAP
80
40
20
40
80
ENDCHAR
STARTCHAR fraction
ENCODING 8260
SWIDTH 520 0
DWIDTH 9 0
BBX 7 11 0 0
BITMAP
02
02
04
08
08
10
10
20
40
40
80
ENDCHAR
STARTCHAR Euro
ENCODING 8364
SWIDTH 520 0
DWIDTH 9 0
BBX 7 10 0 0
BITMAP
1C
22
62
F0
40
40
F0
62
22
1C
ENDCHAR
STARTCHAR afii61352
ENCODING 8470
SWIDTH 520 0
DWIDTH 10 0
BBX 9 10 0 0
BITMAP
D000
D000
D000
D380
F480
B480
B380
B000
B000
9780
ENDCHAR
STARTCHAR trademark
ENCODING 8482
SWIDTH 520 0
DWIDTH 9 0
BBX 9 4 0 6
BITMAP
ED80
4D80
4A80
4A80
ENDCHAR
STARTCHAR Omega
ENCODING 8486
SWIDTH 520 0
DWIDTH 9 0
BBX 8 10 0 0
BITMAP
3C
42
81
81
81
81
81
42
24
E7
ENDCHAR
STARTCHAR partialdiff
ENCODING 8706
SWIDTH 520 0
DWIDTH 9 0
BBX 8 10 0 0
BITMAP
30
0C
06
02
3D
41
81
81
82
7C
ENDCHAR
STARTCHAR Delta
ENCODING 8710
SWIDTH 520 0
DWIDTH 9 0
BBX 8 10 0 0
BITMAP
18
28
28
24
44
44
42
82
82
FF
ENDCHAR
STARTCHAR product
ENCODING 8719
SWIDTH 520 0
DWIDTH 9 0
BBX 7 10 0 0
BITMAP
FE
44
44
44
44
44
44
44
44
44
ENDCHAR
STARTCHAR summation
ENCODING 8721
SWIDTH 520 0
DWIDTH 9 0
BBX 7 10 0 0
BITMAP
FE
42
62
22
10
10
22
62
42
FE
ENDCHAR
STARTCHAR minus
ENCODING 8722
SWIDTH 520 0
DWIDTH 9 0
BBX 7 1 0 3
BITMAP
FE
ENDCHAR
STARTCHAR radical
ENCODING 8730
SWIDTH 520 0
DWIDTH 9 0
BBX 7 9 0 0
BITMAP
0E
08
08
90
90
50
60
60
20
ENDCHAR
STARTCHAR infinity
ENCODING 8734
SWIDTH 520 0
DWIDTH 9 0
BBX 8 4 0 2
BITMAP
6E
91
91
6E
ENDCHAR
STARTCHAR integral
ENCODING 8747
SWIDTH 520 0
DWIDTH 9 0
BBX 7 16 0 -3
BITMAP
0E
10
10
10
10
10
10
10
10
10
10
10
10
10
10
E0
ENDCHAR
STARTCHAR approxequal
ENCODING 8776
SWIDTH 520 0
DWIDTH 9 0
BBX 8 5 0 1
BITMAP
73
8C
00
F3
8C
ENDCHAR
STARTCHAR notequal
ENCODING 8800
SWIDTH 520 0
DWIDTH 9 0
BBX 7 7 0 0
BITMAP
04
FE
08
10
10
FE
60
ENDCHAR
STARTCHAR lessequal
ENCODING 8804
SWIDTH 520 0
DWIDTH 9 0
BBX 6 10 1 -2
BITMAP
08
10
20
40
40
20
10
08
00
FC
ENDCHAR
STARTCHAR greaterequal
ENCODING 8805
SWIDTH 520 0
DWIDTH 9 0
BBX 6 10 1 -2
BITMAP
20
30
18
0C
04
08
10
20
00
FC
ENDCHAR
STARTCHAR uni2303
ENCODING 8963
SWIDTH 520 0
DWIDTH 9 0
BBX 8 5 0 0
BITMAP
10
38
64
C2
81
ENDCHAR
STARTCHAR uni2318
ENCODING 8984
SWIDTH 520 0
DWIDTH 9 0
BBX 8 8 0 0
BITMAP
77
95
FF
14
7F
95
95
66
ENDCHAR
STARTCHAR uni2324
ENCODING 8996
SWIDTH 520 0
DWIDTH 9 0
BBX 8 6 0 0
BITMAP
C6
10
18
24
42
81
ENDCHAR
STARTCHAR optionkey
ENCODING 8997
SWIDTH 520 0
DWIDTH 9 0
BBX 9 6 0 0
BITMAP
E380
1000
0800
0800
0400
0380
ENDCHAR
STARTCHAR erasetotheright
ENCODING 8998
SWIDTH 520 0
DWIDTH 9 0
BBX 8 10 1 0
BITMAP
F0
98
8C
D6
B1
F1
86
8C
98
F0
ENDCHAR
STARTCHAR uni237d
ENCODING 9085
SWIDTH 520 0
DWIDTH 9 0
BBX 9 2 0 0
BITMAP
E380
3E00
ENDCHAR
STARTCHAR uni2388
ENCODING 9096
SWIDTH 520 0
DWIDTH 9 0
BBX 9 8 1 0
BITMAP
0400
F300
C080
A080
1880
4080
2100
1E00
ENDCHAR
STARTCHAR uni23ce
ENCODING 9166
SWIDTH 520 0
DWIDTH 9 0
BBX 9 7 0 0
BITMAP
0780
0080
2080
4300
FE00
4000
2000
ENDCHAR
STARTCHAR uni2423
ENCODING 9251
SWIDTH 520 0
DWIDTH 9 0
BBX 6 2 1 0
BITMAP
84
FC
ENDCHAR
STARTCHAR SF100000
ENCODING 9472
SWIDTH 520 0
DWIDTH 9 0
BBX 9 1 0 5
BITMAP
FF80
ENDCHAR
STARTCHAR SF110000
ENCODING 9474
SWIDTH 520 0
DWIDTH 9 0
BBX 1 16 3 -3
BITMAP
80
80
80
80
80
80
80
80
80
80
80
80
80
80
80
80
ENDCHAR
STARTCHAR SF010000
ENCODING 9484
SWIDTH 520 0
DWIDTH 9 0
BBX 6 9 3 -3
BITMAP
FC
80
80
80
80
80
80
80
80
ENDCHAR
STARTCHAR SF030000
ENCODING 9488
SWIDTH 520 0
DWIDTH 9 0
BBX 4 9 0 -3
BITMAP
F0
10
10
10
10
10
10
10
10
ENDCHAR
STARTCHAR SF020000
ENCODING 9492
SWIDTH 520 0
DWIDTH 9 0
BBX 6 8 3 5
BITMAP
80
80
80
80
80
80
80
FC
ENDCHAR
STARTCHAR SF040000
ENCODING 9496
SWIDTH 520 0
DWIDTH 9 0
BBX 4 8 0 5
BITMAP
10
10
10
10
10
10
10
F0
ENDCHAR
STARTCHAR SF080000
ENCODING 9500
SWIDTH 520 0
DWIDTH 9 0
BBX 6 16 3 -3
BITMAP
80
80
80
80
80
80
80
FC
80
80
80
80
80
80
80
80
ENDCHAR
STARTCHAR SF090000
ENCODING 9508
SWIDTH 520 0
DWIDTH 9 0
BBX 4 16 0 -3
BITMAP
10
10
10
10
10
10
10
F0
10
10
10
10
10
10
10
10
ENDCHAR
STARTCHAR SF060000
ENCODING 9516
SWIDTH 520 0
DWIDTH 9 0
BBX 9 9 0 -3
BITMAP
FF80
1000
1000
1000
1000
1000
1000
1000
1000
ENDCHAR
STARTCHAR SF070000
ENCODING 9524
SWIDTH 520 0
DWIDTH 9 0
BBX 9 8 0 5
BITMAP
1000
1000
1000
1000
1000
1000
1000
FF80
ENDCHAR
STARTCHAR SF050000
ENCODING 9532
SWIDTH 520 0
DWIDTH 9 0
BBX 9 16 0 -3
BITMAP
1000
1000
1000
1000
1000
1000
1000
FF80
1000
1000
1000
1000
1000
1000
1000
1000
ENDCHAR
STARTCHAR SF430000
ENCODING 9552
SWIDTH 520 0
DWIDTH 9 0
BBX 9 4 0 3
BITMAP
FF80
0000
0000
FF80
ENDCHAR
STARTCHAR SF240000
ENCODING 9553
SWIDTH 520 0
DWIDTH 9 0
BBX 4 16 2 -3
BITMAP
90
90
90
90
90
90
90
90
90
90
90
90
90
90
90
90
ENDCHAR
STARTCHAR SF510000
ENCODING 9554
SWIDTH 520 0
DWIDTH 9 0
BBX 6 10 3 -3
BITMAP
1C
10
10
FC
80
80
80
80
80
80
ENDCHAR
STARTCHAR SF520000
ENCODING 9555
SWIDTH 520 0
DWIDTH 9 0
BBX 7 9 2 -3
BITMAP
1E
10
10
F0
90
90
90
90
90
ENDCHAR
STARTCHAR SF390000
ENCODING 9556
SWIDTH 520 0
DWIDTH 9 0
BBX 7 10 2 -3
BITMAP
FE
80
80
9E
90
90
90
90
90
90
ENDCHAR
STARTCHAR SF220000
ENCODING 9557
SWIDTH 520 0
DWIDTH 9 0
BBX 4 10 0 -3
BITMAP
E0
20
20
F0
10
10
10
10
10
10
ENDCHAR
STARTCHAR SF210000
ENCODING 9558
SWIDTH 520 0
DWIDTH 9 0
BBX 6 9 0 -3
BITMAP
E0
20
20
3C
24
24
24
24
24
ENDCHAR
STARTCHAR SF250000
ENCODING 9559
SWIDTH 520 0
DWIDTH 9 0
BBX 6 10 0 -3
BITMAP
FC
04
04
E4
24
24
24
24
24
24
ENDCHAR
STARTCHAR SF500000
ENCODING 9560
SWIDTH 520 0
DWIDTH 9 0
BBX 6 10 3 3
BITMAP
80
80
80
80
80
80
FC
10
10
1C
ENDCHAR
STARTCHAR SF490000
ENCODING 9561
SWIDTH 520 0
DWIDTH 9 0
BBX 7 8 2 5
BITMAP
90
90
90
90
F0
10
10
1E
ENDCHAR
STARTCHAR SF380000
ENCODING 9562
SWIDTH 520 0
DWIDTH 9 0
BBX 7 10 2 3
BITMAP
90
90
90
90
90
90
9E
80
80
FE
ENDCHAR
STARTCHAR SF280000
ENCODING 9563
SWIDTH 520 0
DWIDTH 9 0
BBX 4 10 0 3
BITMAP
10
10
10
10
10
10
F0
80
80
80
ENDCHAR
STARTCHAR SF270000
ENCODING 9564
SWIDTH 520 0
DWIDTH 9 0
BBX 6 8 0 5
BITMAP
24
24
24
24
3C
20
20
E0
ENDCHAR
STARTCHAR SF260000
ENCODING 9565
SWIDTH 520 0
DWIDTH 9 0
BBX 6 10 0 3
BITMAP
24
24
24
24
24
24
E4
04
04
FC
ENDCHAR
STARTCHAR SF360000
ENCODING 9566
SWIDTH 520 0
DWIDTH 9 0
BBX 6 16 3 -3
BITMAP
80
80
80
80
80
80
FC
00
00
FC
80
80
80
80
80
80
ENDCHAR
STARTCHAR SF370000
ENCODING 9567
SWIDTH 520 0
DWIDTH 9 0
BBX 7 16 2 -3
BITMAP
90
90
90
90
90
90
90
9E
90
90
90
90
90
90
90
90
ENDCHAR
STARTCHAR SF420000
ENCODING 9568
SWIDTH 520 0
DWIDTH 9 0
BBX 7 16 2 -3
BITMAP
90
90
90
90
90
90
9E
80
80
9E
90
90
90
90
90
90
ENDCHAR
STARTCHAR SF190000
ENCODING 9569
SWIDTH 520 0
DWIDTH 9 0
BBX 4 16 0 -3
BITMAP
10
10
10
10
10
10
F0
00
00
F0
10
10
10
10
10
10
ENDCHAR
STARTCHAR SF200000
ENCODING 9570
SWIDTH 520 0
DWIDTH 9 0
BBX 6 16 0 -3
BITMAP
24
24
24
24
24
24
24
E4
24
24
24
24
24
24
24
24
ENDCHAR
STARTCHAR SF230000
ENCODING 9571
SWIDTH 520 0
DWIDTH 9 0
BBX 6 16 0 -3
BITMAP
24
24
24
24
24
24
E4
04
04
E4
24
24
24
24
24
24
ENDCHAR
STARTCHAR SF470000
ENCODING 9572
SWIDTH 520 0
DWIDTH 9 0
BBX 9 10 0 -3
BITMAP
FF80
0000
0000
FF80
1000
1000
1000
1000
1000
1000
ENDCHAR
STARTCHAR SF480000
ENCODING 9573
SWIDTH 520 0
DWIDTH 9 0
BBX 9 9 0 -3
BITMAP
E780
2400
2400
2400
2400
2400
2400
2400
2400
ENDCHAR
STARTCHAR SF410000
ENCODING 9574
SWIDTH 520 0
DWIDTH 9 0
BBX 9 10 0 -3
BITMAP
FF80
0000
0000
E780
2400
2400
2400
2400
2400
2400
ENDCHAR
STARTCHAR SF450000
ENCODING 9575
SWIDTH 520 0
DWIDTH 9 0
BBX 9 10 0 3
BITMAP
1000
1000
1000
1000
1000
1000
FF80
0000
0000
FF80
ENDCHAR
STARTCHAR SF460000
ENCODING 9576
SWIDTH 520 0
DWIDTH 9 0
BBX 9 8 0 5
BITMAP
2400
2400
2400
2400
2400
2400
2400
E780
ENDCHAR
STARTCHAR SF400000
ENCODING 9577
SWIDTH 520 0
DWIDTH 9 0
BBX 9 10 0 3
BITMAP
2400
2400
2400
2400
2400
2400
E780
0000
0000
FF80
ENDCHAR
STARTCHAR SF540000
ENCODING 9578
SWIDTH 520 0
DWIDTH 9 0
BBX 9 16 0 -3
BITMAP
1000
1000
1000
1000
1000
1000
FF80
0000
0000
FF80
1000
1000
1000
1000
1000
1000
ENDCHAR
STARTCHAR SF530000
ENCODING 9579
SWIDTH 520 0
DWIDTH 9 0
BBX 9 16 0 -3
BITMAP
2400
2400
2400
2400
2400
2400
2400
E780
2400
2400
2400
2400
2400
2400
2400
2400
ENDCHAR
STARTCHAR SF440000
ENCODING 9580
SWIDTH 520 0
DWIDTH 9 0
BBX 9 16 0 -3
BITMAP
2400
2400
2400
2400
2400
2400
E780
0000
0000
E780
2400
2400
2400
2400
2400
2400
ENDCHAR
STARTCHAR blackdiamond
ENCODING 9670
SWIDTH 520 0
DWIDTH 9 0
BBX 8 7 0 0
BITMAP
10
38
7C
FF
7C
38
10
ENDCHAR
STARTCHAR lozenge
ENCODING 9674
SWIDTH 520 0
DWIDTH 9 0
BBX 8 7 0 0
BITMAP
10
28
44
83
44
28
10
ENDCHAR
STARTCHAR checkmark
ENCODING 10003
SWIDTH 520 0
DWIDTH 9 0
BBX 9 6 0 0
BITMAP
0080
0300
8600
4C00
3000
2000
ENDCHAR
STARTCHAR shift
ENCODING 57344
SWIDTH 520 0
DWIDTH 9 0
BBX 8 7 0 0
BITMAP
18
24
42
E7
24
24
3C
ENDCHAR
STARTCHAR shiftlock
ENCODING 57345
SWIDTH 520 0
DWIDTH 9 0
BBX 8 7 0 0
BITMAP
10
38
64
E6
3D
3C
3C
ENDCHAR
STARTCHAR verticaltab
ENCODING 57346
SWIDTH 520 0
DWIDTH 9 0
BBX 8 7 0 0
BITMAP
E3
01
0D
19
BF
18
0C
ENDCHAR
STARTCHAR copy
ENCODING 57347
SWIDTH 520 0
DWIDTH 9 0
BBX 7 10 1 0
BITMAP
F8
98
94
9E
82
A2
F2
A2
82
FE
ENDCHAR
STARTCHAR back
ENCODING 57348
SWIDTH 520 0
DWIDTH 9 0
BBX 8 8 1 0
BITMAP
04
8C
98
B0
BF
90
88
84
ENDCHAR
STARTCHAR endtab
ENCODING 57349
SWIDTH 520 0
DWIDTH 9 0
BBX 9 7 0 0
BITMAP
F000
8000
8200
6100
3F80
0100
0200
ENDCHAR
STARTCHAR insert
ENCODING 57350
SWIDTH 520 0
DWIDTH 9 0
BBX 8 7 1 0
BITMAP
E7
80
B0
98
FF
18
30
ENDCHAR
STARTCHAR tab
ENCODING 57351
SWIDTH 520 0
DWIDTH 9 0
BBX 8 8 0 0
BITMAP
20
71
19
0D
FD
09
11
61
ENDCHAR
STARTCHAR uniE0B0
ENCODING 57520
SWIDTH 520 0
DWIDTH 9 0
BBX 9 18 0 -4
BITMAP
8000
8000
C000
E000
F000
F800
FC00
FE00
FF00
FF80
FE00
FC00
F800
F000
E000
E000
C000
8000
ENDCHAR
STARTCHAR uniE0B2
ENCODING 57522
SWIDTH 520 0
DWIDTH 9 0
BBX 10 18 0 -4
BITMAP
00C0
01C0
03C0
07C0
0FC0
1FC0
3FC0
7FC0
FFC0
FFC0
7FC0
3FC0
1FC0
0FC0
07C0
03C0
01C0
00C0
ENDCHAR
STARTCHAR uniE0B8
ENCODING 57528
SWIDTH 520 0
DWIDTH 9 0
BBX 9 18 0 -4
BITMAP
8000
8000
8000
C000
C000
E000
E000
F000
F000
F800
F800
FC00
FC00
FE00
FE00
FF00
FF00
FF80
ENDCHAR
STARTCHAR uniE0BA
ENCODING 57530
SWIDTH 520 0
DWIDTH 9 0
BBX 10 18 0 -4
BITMAP
00C0
00C0
01C0
01C0
03C0
03C0
07C0
07C0
0FC0
0FC0
1FC0
1FC0
3FC0
3FC0
7FC0
7FC0
FFC0
FFC0
ENDCHAR
STARTCHAR uniE0BC
ENCODING 57532
SWIDTH 520 0
DWIDTH 9 0
BBX 9 18 0 -4
BITMAP
FF80
FF00
FF00
FE00
FE00
FC00
FC00
F800
F800
F000
F000
E000
E000
C000
C000
8000
8000
8000
ENDCHAR
STARTCHAR uniE0BE
ENCODING 57534
SWIDTH 520 0
DWIDTH 9 0
BBX 10 18 0 -4
BITMAP
FFC0
FFC0
7FC0
7FC0
3FC0
3FC0
1FC0
1FC0
0FC0
0FC0
07C0
07C0
03C0
03C0
01C0
01C0
00C0
00C0
ENDCHAR
STARTCHAR commaaccent
ENCODING 63171
SWIDTH 520 0
DWIDTH 9 0
BBX 3 2 2 -3
BITMAP
60
C0
ENDCHAR
STARTCHAR apple
ENCODING 63743
SWIDTH 520 0
DWIDTH 9 0
BBX 9 11 0 0
BITMAP
0400
0400
0800
7F00
FF80
FF00
FF00
FF00
7F80
7F00
3F00
ENDCHAR
STARTCHAR appleopen
ENCODING 63744
SWIDTH 520 0
DWIDTH 9 0
BBX 9 11 0 0
BITMAP
0600
0400
0800
7F80
8080
8100
8100
8100
8080
4080
3F00
ENDCHAR
STARTCHAR fi
ENCODING 64257
SWIDTH 520 0
DWIDTH 9 0
BBX 9 10 0 0
BITMAP
1C00
2000
2000
FE00
2200
2200
2200
2200
2200
FF80
ENDCHAR
STARTCHAR fl
ENCODING 64258
SWIDTH 520 0
DWIDTH 9 0
BBX 9 10 0 0
BITMAP
1E00
2200
2200
FA00
2200
2200
2200
2200
2200
FF80
ENDCHAR
STARTCHAR .notdef
ENCODING -1
SWIDTH 520 0
DWIDTH 9 0
BBX 7 10 0 0
BITMAP
FE
82
82
82
82
82
82
82
82
FE
ENDCHAR
ENDFONT
